<svg width="213" height="77" viewBox="0 0 213 77" fill="none" xmlns="http://www.w3.org/2000/svg">
<path fill-rule="evenodd" clip-rule="evenodd" d="M32.2078 46.9668C33.3343 46.9668 33.8117 48.0828 33.8117 49.8325V61.9384C33.8117 68.313 30.5945 68.4737 29.3057 67.8306C27.7018 67.0362 27.3773 64.3218 27.3773 61.7776V49.8325C27.3773 48.0828 28.0169 46.9668 29.1434 46.9668V46.3331H22.5467V46.9668C23.6732 46.9668 24.1505 48.0828 24.1505 49.8325V63.0544C24.1505 65.4473 25.6016 69.2682 28.9715 69.5898C32.351 69.7505 34.604 67.6793 34.604 61.7871V49.8419C34.604 48.0922 35.2436 46.9762 36.2079 46.9762V46.3425H32.1887V46.9668H32.2078Z" fill="#FFF5E5"/>
<path fill-rule="evenodd" clip-rule="evenodd" d="M43.9498 46.333H37.6777V46.9667C38.8042 46.9667 39.4439 48.0827 39.4439 49.8324V65.4472C39.4439 67.1969 38.8042 68.3129 37.6777 68.3129V68.9466H44.4272C45.8782 68.9466 47.3198 68.1521 48.7709 66.393C51.0239 63.3665 51.6635 56.8311 50.537 52.8494C49.42 47.7706 46.8425 46.333 43.9498 46.333ZM47.167 63.5367C46.8425 65.1256 46.3651 68.0008 43.4725 68.0008C42.6706 68.0008 42.6706 67.6792 42.6706 65.9295V49.3595C42.6706 47.6098 42.6706 47.449 43.4725 47.449C44.599 47.449 45.4009 47.2882 46.3651 49.1987C47.969 52.2252 47.9689 59.555 47.167 63.5367Z" fill="#FFF5E5"/>
<path fill-rule="evenodd" clip-rule="evenodd" d="M95.569 34.7H93.1537L96.3709 26.7366C96.3709 26.7366 96.3709 26.7366 102.643 26.7366C102.643 26.7366 102.643 26.5758 102.643 34.7H99.7504C99.7504 34.7 99.7504 34.7 99.7504 35.9768C99.7504 35.9768 99.7504 35.9768 117.278 35.9768C117.278 35.9768 117.278 35.9768 117.278 34.7H114.385C114.385 34.7 114.385 34.7 114.385 23.067H118.729C120.333 23.067 121.622 21.6294 121.622 20.362V9.21131C121.622 8.25608 120.495 6.65771 118.567 6.65771H99.7504V7.93451H102.003L91.5499 34.7H89.2969V35.9768H95.569V34.7ZM114.376 7.94397H116.466C116.953 7.94397 117.268 8.26553 117.268 8.73842V21.0052C117.268 21.4875 116.944 21.7996 116.466 21.7996H114.376V15.5859V14.1483V7.94397ZM106.824 7.94397H110.204V34.7095H106.824V7.94397ZM102.643 10.4881V25.299H96.6955L102.643 10.4881Z" fill="#FFF5E5"/>
<path fill-rule="evenodd" clip-rule="evenodd" d="M57.4592 68.0009C56.495 67.8401 56.3327 67.3672 56.3327 65.7688V58.1269C58.5857 58.2877 59.0631 58.9214 59.7122 63.0639H60.0368V52.074H59.7122C59.0726 56.2165 58.5857 56.6894 56.3327 57.0109V49.369C56.3327 47.6193 56.495 47.2978 57.1347 47.4586H58.9008C62.118 47.6193 62.2803 52.0739 62.4426 53.19H62.9294V46.3425H51.5117V46.9762C52.4759 46.9762 53.1155 48.0922 53.1155 49.8419V65.4567C53.1155 67.2064 52.4759 68.3224 51.5117 68.3224V68.9561H63.0917L63.8936 62.1087H63.4068C61.9557 66.8848 60.3519 68.313 57.4592 68.0009Z" fill="#FFF5E5"/>
<path fill-rule="evenodd" clip-rule="evenodd" d="M20.9524 41.7177L14.203 41.5569V42.8337H16.2937L6.48932 68.0009H4.23633V69.2777H10.1838V68.0009H7.76857L10.8235 60.5103C10.8235 60.5103 10.9858 60.5103 16.771 60.5103C16.771 60.5103 16.771 60.5103 16.771 68.0009H14.0407C14.0407 68.0009 14.0407 68.1616 14.0407 69.2777C14.0407 69.2777 14.5275 69.2777 23.53 69.2777V68.0009H20.9619V41.7177H20.9524ZM16.7805 59.5551H11.3103L16.7805 45.5386V59.5551Z" fill="#FFF5E5"/>
<path fill-rule="evenodd" clip-rule="evenodd" d="M142.032 41.5569H131.416V42.8337H133.984V68.0008H131.092V69.2776C133.345 69.2776 136.877 69.2776 140.896 69.2776C140.896 69.2776 140.896 69.1169 140.896 68.0008H138.166C138.166 68.0008 138.166 68.0008 138.166 57.0109H142.347C143.798 57.0109 144.915 55.5733 144.915 54.6181V43.9497C144.934 43.1458 143.961 41.5569 142.032 41.5569ZM140.906 55.091C140.906 55.5733 140.581 55.8854 140.104 55.8854H138.175V49.9932V48.5556V42.8242H140.104C140.591 42.8242 140.906 43.1458 140.906 43.4579V55.091Z" fill="#FFF5E5"/>
<path fill-rule="evenodd" clip-rule="evenodd" d="M161.975 59.3944C163.102 59.3944 163.579 60.5104 163.579 62.2601V66.5634C163.579 67.0457 163.579 67.8402 162.777 68.3131C162.29 68.6347 161.651 68.6347 161.173 68.6347C160.849 68.6347 160.372 68.6347 160.047 68.1523C159.083 67.5186 158.596 66.2418 158.119 64.0098C157.794 62.5722 157.632 60.1888 157.632 57.796C157.632 55.2424 157.794 52.8591 158.119 51.4215C158.605 49.1895 159.083 47.9127 160.047 47.279C160.372 46.9574 160.849 46.7966 161.173 46.7966C162.462 46.7966 165.355 49.0287 166.319 53.9656H166.806V46.0022H166.319C165.994 46.6359 165.994 47.7519 164.868 47.4398C164.228 47.1182 162.94 46.163 161.173 46.0022C159.885 46.0022 158.443 46.6359 157.154 48.0734C155.226 49.9839 154.262 53.8049 154.262 57.7866C154.262 61.6075 155.226 65.4285 157.154 67.4997C158.443 68.7765 159.885 69.571 161.173 69.571C161.813 69.571 162.462 69.571 163.102 69.4102C163.589 69.2494 166.319 68.6157 166.796 67.8213V62.2412C166.796 60.4915 167.436 59.3755 168.562 59.3755V58.7418H161.966V59.3944H161.975Z" fill="#FFF5E5"/>
<path fill-rule="evenodd" clip-rule="evenodd" d="M178.212 46.9667C179.338 46.9667 179.816 48.0827 179.816 49.8324V61.9383C179.816 68.3129 176.599 68.4737 175.31 67.8305C173.706 67.0361 173.381 64.3217 173.381 61.7776V49.8324C173.381 48.0827 174.021 46.9667 175.147 46.9667V46.333H168.551V46.9667C169.677 46.9667 170.155 48.0827 170.155 49.8324V63.0544C170.155 65.4472 171.606 69.2681 174.976 69.5897C178.355 69.7505 180.599 67.6792 180.599 61.787V49.8418C180.599 48.0922 181.238 46.9761 182.202 46.9761V46.3425H178.183V46.9667H178.212Z" fill="#FFF5E5"/>
<path fill-rule="evenodd" clip-rule="evenodd" d="M189.956 68.0009C188.829 67.8401 188.829 67.3672 188.829 65.7688V58.1269C191.082 58.2877 191.397 58.9214 192.046 63.0639H192.533V52.074H192.046C191.407 56.2165 191.082 56.6894 188.829 57.0109V49.369C188.829 47.6194 188.991 47.2978 189.631 47.4586H191.397C194.614 47.6194 194.777 52.074 194.939 53.19H195.263V46.3425H183.846V46.9762C184.972 46.9762 185.612 48.0922 185.612 49.8419V65.4567C185.612 67.2064 184.972 68.3224 183.846 68.3224V68.9561H195.426L196.39 62.1087H195.75C194.29 66.8849 192.848 68.313 189.956 68.0009Z" fill="#FFF5E5"/>
<path fill-rule="evenodd" clip-rule="evenodd" d="M196.705 46.3331V53.0197H197.192C197.354 52.2253 197.354 50.6269 198.318 48.8772C199.445 46.9668 200.734 47.4396 201.211 47.4396V65.4378C201.211 67.1875 200.571 68.3035 199.607 68.3035V68.9372H206.042V68.3035C205.077 68.3035 204.438 67.1875 204.438 65.4378V47.4396C204.925 47.4396 206.204 46.9573 207.33 48.8772C208.295 50.6269 208.295 52.2253 208.457 53.0197H208.781V46.3331H196.705Z" fill="#FFF5E5"/>
<path fill-rule="evenodd" clip-rule="evenodd" d="M74.4994 61.787L70.318 46.333H64.6855V46.9667C66.1366 46.9667 66.614 47.449 66.614 49.8324V65.4472C66.614 67.1969 66.1271 68.3129 64.8478 68.3129V68.9466H69.3538V68.3129C68.2273 68.3129 67.5877 67.1969 67.5877 65.4472V49.1987L73.0579 68.956H73.5448L79.1677 49.1987V65.4472C79.1677 67.1969 78.5281 68.3129 77.4016 68.3129V68.9466H84.4756V68.3129C83.3491 68.3129 82.7095 67.1969 82.7095 65.4472V49.8324C82.7095 48.0827 83.3491 46.9667 84.4756 46.9667V46.333H79.0054L74.4994 61.787Z" fill="#FFF5E5"/>
<path fill-rule="evenodd" clip-rule="evenodd" d="M112.933 67.0455L109.076 57.8053C110.203 57.323 111.167 56.5285 111.806 54.7788C112.608 52.7076 112.131 50.0026 111.32 48.565C110.193 46.8154 108.265 46.333 106.661 46.333H100.389V46.9667C101.353 46.9667 101.992 48.0827 101.992 49.8324V65.4472C101.992 67.1969 101.353 68.3129 100.389 68.3129H100.551V68.9466H106.823V68.3129C105.859 68.3129 105.219 67.1969 105.219 65.4472V58.439H105.706L109.888 68.956H113.907V68.3223C113.572 68.3129 113.41 68.4737 112.933 67.0455ZM108.751 54.7788C108.112 57.8053 106.183 57.3324 105.21 57.3324V48.8866C105.21 47.9314 105.697 47.449 106.012 47.449C107.615 47.1275 108.265 48.2435 108.58 49.5203C108.914 50.3147 109.076 53.1804 108.751 54.7788Z" fill="#FFF5E5"/>
<path fill-rule="evenodd" clip-rule="evenodd" d="M97.811 66.724L92.6654 46.333H92.1785L87.1952 66.0903C86.7083 68.0008 86.231 68.3223 85.7441 68.3223V68.956H89.7633V68.3223C88.3122 68.3223 87.8348 67.2063 88.3122 65.4566L88.9518 62.4301H93.6105L94.5747 66.2511C94.8993 68.0008 93.6105 68.3223 92.8086 68.3223V68.956H99.0807V68.3223C98.7848 68.3129 98.1356 68.1616 97.811 66.724ZM89.2955 61.1439L91.2239 52.8589L93.3146 61.1439H89.2955Z" fill="#FFF5E5"/>
<path fill-rule="evenodd" clip-rule="evenodd" d="M146.539 46.9667C147.828 46.9667 148.467 48.0827 148.467 49.8324V65.4472C148.467 67.1969 147.828 68.3129 146.539 68.3129V68.9466H153.451V68.3129C152.162 68.3129 151.685 67.1969 151.685 65.4472V49.8324C151.685 48.0827 152.172 46.9667 153.451 46.9667V46.333H146.539V46.9667Z" fill="#FFF5E5"/>
<path fill-rule="evenodd" clip-rule="evenodd" d="M121.133 55.2517C118.565 53.9749 117.754 52.2252 117.754 50.7877C117.754 49.9932 118.078 47.1275 120.007 47.1275C122.899 47.1275 123.864 51.5916 124.35 53.3413H124.837V46.0115H124.35C124.026 46.6451 124.026 47.1275 123.549 47.1275C122.422 47.1275 121.458 46.0115 119.205 46.0115C117.276 46.0115 115.023 47.7612 115.023 52.2252C115.023 54.2965 115.663 57.1622 118.241 58.9119C121.782 61.4655 123.062 62.4207 123.062 64.3312C123.062 65.1256 122.737 68.4737 119.844 68.4737C117.754 68.4737 116.303 65.1256 116.15 63.8583L115.663 61.4655H115.176V69.5897H115.663C115.663 68.956 115.825 68.4737 115.988 68.4737C117.114 68.4737 119.043 69.5897 120.331 69.5897C125.152 69.5897 125.964 65.2864 125.964 63.0544C125.954 59.8766 124.503 57.0014 121.133 55.2517Z" fill="#FFF5E5"/>
</svg>
