<svg width="229" height="65" viewBox="0 0 229 65" fill="none" xmlns="http://www.w3.org/2000/svg">
<g clip-path="url(#clip0_58_117)">
<path fill-rule="evenodd" clip-rule="evenodd" d="M110.695 22.7359H121.211C128.829 22.7145 129.106 14.6292 122.298 14.3519C122.042 14.3305 121.999 13.8185 122.5 13.7759C127.412 13.7225 128.445 6.35188 119.325 6.30921H110.706V22.7359H110.695ZM115.958 7.55721H118.377C122.564 7.57854 122.532 13.4345 118.324 13.4879H115.958V7.55721ZM115.99 14.9812H118.334C120.327 14.9812 121.818 15.6425 122.298 16.6985C122.724 17.6799 122.702 18.7892 122.319 19.5785C121.818 20.6345 120.348 21.3172 118.334 21.3172H117.375C116.896 21.2959 116.065 21.3919 115.99 20.5599V14.9812ZM101.564 6.22388H108.021V23.0345H101.564V21.9785H103.099C103.759 21.9785 104.185 22.0532 104.185 20.9226V8.39988C104.185 7.26921 103.781 7.29054 103.099 7.29054H101.564V6.22388Z" fill="#FFF5E5"/>
<path fill-rule="evenodd" clip-rule="evenodd" d="M95.8438 24.5493H99.0507L99.935 25.328V30.0426H97.4099V26.0533H96.3978L95.8438 25.3173V24.5493ZM113.008 24.5493L112.155 25.584V26.2667H114.148C114.169 25.8613 114.446 25.5627 114.883 25.584H119.24V26.6933H116.747V27.632H119.24V28.944H114.883C114.478 28.944 114.18 28.72 114.148 28.2613H112.155V28.944L113.008 30.0533H120.519C121.424 30.0533 122.085 29.04 121.776 28.0586C121.478 27.0986 121.297 27.0987 121.776 26.2667C122.277 25.456 121.446 24.5493 120.519 24.5493H113.008ZM123.832 24.5493H133.133V25.328H125.974V26.3413H130.683C133.986 26.3413 133.965 29.9787 130.736 30L125.015 30.0533L123.832 29.3493V28.848H130.363C131.322 28.848 131.322 27.3867 130.363 27.3867H123.832V24.5493ZM101.565 24.5493H110.568V26.064L106.786 30.0533H103.856V29.3493L107.212 26.064H101.565V24.5493Z" fill="#FFF5E5"/>
<path fill-rule="evenodd" clip-rule="evenodd" d="M0.371094 34.4159V35.6319H2.34212C3.32231 35.6319 4.00418 36.4639 4.00418 37.2959V54.9386C4.00418 55.7492 3.57801 56.5279 2.34212 56.5279H0.371094V58.0425H19.2077C30.1709 58.0425 30.5758 46.3839 20.7419 45.9785C20.3903 45.9572 20.3158 45.2745 21.0402 45.1999C28.1253 45.1252 29.5849 34.4692 16.4483 34.4265H0.371094V34.4159ZM134.017 39.5359H146.728C151.767 39.5359 156.178 39.6319 156.157 44.7092C156.136 48.6985 150.766 49.9039 148.699 49.9039H143.201V55.4825C143.201 56.4959 144.416 57.1785 145.567 57.1785H146.728V58.0105H134.017V57.1785H135.861C136.713 57.1785 137.576 56.3999 137.576 55.4825V42.4052C137.576 41.4986 136.947 40.6879 135.861 40.6879H134.017V39.5359ZM165.042 45.6799L162.677 50.5759H168.122L165.042 45.6799ZM63.4759 45.6799L61.0788 50.5759H66.5231L63.4759 45.6799ZM11.6432 36.2399H15.1272C21.1574 36.2932 21.1255 44.6985 15.0739 44.7945L11.6432 44.7732V36.2399ZM31.2044 39.2372H44.3943V40.3785H42.306C41.4537 40.3785 40.5161 40.2825 40.5161 41.5625V54.8639C40.5161 55.9945 41.5496 55.8452 42.306 55.8452H46.5677C48.6559 55.8452 50.1688 53.7546 51.3088 50.8212L52.4169 51.1519L51.3088 58.0425H31.2044V56.9332H33.0902C33.7507 56.9332 34.6989 56.5065 34.6989 55.8452V41.5625C34.6989 40.8585 33.8679 40.3785 33.0902 40.3785H31.2044V39.2372ZM143.191 41.2319V48.0265H146.717C151.352 48.0265 151.203 41.2319 146.717 41.2319H143.191ZM181.557 39.2159H194.31V40.1759H192.871C191.912 40.1759 190.9 40.7519 190.9 41.8399V55.7705C190.9 56.8265 191.603 56.8799 192.871 56.8799H194.31V58.0425H181.557V56.9119H183.346C184.177 56.9119 185.04 56.3359 185.04 55.7812V41.8399C185.04 41.0612 184.433 40.1759 183.346 40.1759H181.557V39.2159ZM128.648 38.6612L129.425 38.6825L129.521 45.2425L128.541 45.3705C125.995 41.2105 123.321 40.8266 120.955 40.7732C110.109 40.5172 112.134 65.2532 129.447 52.8372L129.394 55.7172C125.686 57.6372 122.415 57.9892 119.56 57.9892C101.863 57.9146 104.857 34.0639 125.835 39.5892C127.135 40.0159 128.04 39.7172 128.648 38.6612ZM196.334 33.8612H206.818L221.947 46.7572V36.2825C221.947 35.3012 221.137 34.7465 219.858 34.7465H218.164V33.8612H228.627V34.7465H227.22C225.803 34.7465 225.079 35.2479 225.079 36.2825V58.0425H223.864L203.142 39.7705V54.4372C203.142 55.5679 203.92 56.6559 205.028 56.6559H207.478V58.0425H196.036V56.6559H197.772C199.104 56.6559 200.137 55.7705 200.137 54.4372V36.8692C200.137 35.8559 198.827 35.3012 197.772 35.3012H196.334V33.8612ZM79.4253 39.0879H87.6397L99.5191 49.1892V41.0079C99.5191 40.2292 98.8905 39.7705 97.8571 39.7705H96.5466V39.0879H104.74V39.7705H103.632C102.524 39.7705 101.97 40.1759 101.97 41.0079V58.0425H101.011L84.7737 43.7279V55.2159C84.7737 56.1012 85.381 56.9545 86.2333 56.9545H88.1511V58.0425H79.1803V56.9545H80.5653C81.5988 56.9545 82.4085 56.2719 82.4085 55.2159V41.4559C82.4085 40.6452 81.3963 40.2185 80.5653 40.2185H79.4253V39.0879ZM165.575 39.0665H167.067L177.732 55.8559C178.009 56.3146 178.36 56.9439 179.021 56.9439H179.926V58.0532H167.877V56.9439H170.071C171.126 56.9439 171.488 55.9839 170.828 54.9492L169.134 52.3465H161.846L160.28 54.9492C159.896 55.5999 160.706 56.9439 161.388 56.9439H163.274V58.0532H154.985V56.9439H155.922C156.477 56.9439 157.031 56.4639 157.339 55.8559L165.575 39.0665ZM63.998 39.0665H65.4576L76.1225 55.8559C76.3995 56.3146 76.7511 56.9439 77.4117 56.9439H78.3173V58.0532H66.2993V56.9439H68.4728C69.5275 56.9439 69.8898 55.9839 69.2292 54.9492L67.5352 52.3465H60.2477L58.6816 54.9492C58.3087 55.5999 59.1077 56.9439 59.7896 56.9439H61.7073V58.0532H53.3864V56.9439H54.3453C54.878 56.9439 55.432 56.4639 55.7303 55.8559L63.998 39.0665ZM11.6645 46.9066H15.0419C17.9186 46.9066 20.0601 47.8452 20.7419 49.3812C21.3492 50.7999 21.3173 52.3892 20.7952 53.5199C20.0601 55.0345 17.9718 56.0159 15.0419 56.0159H13.6782C12.975 55.9625 11.7604 56.1119 11.6645 54.9279V46.9066Z" fill="#FFF5E5"/>
</g>
<defs>
<clipPath id="clip0_58_117">
<rect width="228" height="64" fill="white" transform="translate(0.5 0.133301)"/>
</clipPath>
</defs>
</svg>
