<svg width="126" height="77" viewBox="0 0 126 77" fill="none" xmlns="http://www.w3.org/2000/svg">
<g clip-path="url(#clip0_58_97)">
<path fill-rule="evenodd" clip-rule="evenodd" d="M35.4369 48.677C28.2422 59.5949 19.2701 62.6746 12.9157 62.6746C6.83966 62.6746 2.17188 60.06 2.17188 55.4886C2.17188 49.9814 9.45748 44.7579 15.8118 44.7579C18.8044 44.7579 21.4166 46.6238 21.4166 49.3292C21.4166 51.8474 19.0827 55.7665 13.0066 55.7665C10.6727 55.7665 8.8953 55.0179 8.8953 55.0179C8.8953 55.0179 10.8601 55.3922 12.5409 55.3922C17.6801 55.3922 20.0139 52.3125 20.0139 49.5107C20.0139 45.5916 16.2774 45.2173 15.5279 45.2173C9.36095 45.2173 4.03445 50.0722 4.03445 55.3922C4.03445 60.1507 9.0827 62.3003 12.9101 62.3003C16.6466 62.3003 24.1252 61.4608 31.973 49.9814C36.8339 42.9826 43.2791 35.7967 52.9042 33.5564C44.7782 36.6361 42.2569 38.2241 35.4369 48.677Z" fill="#FFF5E5"/>
<path fill-rule="evenodd" clip-rule="evenodd" d="M28.9861 57.5417C31.6948 57.6325 35.7152 54.6492 35.7152 52.0346C35.7152 50.3558 34.2217 49.9814 33.5687 49.9814C28.5205 49.9814 24.9713 55.1143 24.9713 57.9161C24.9713 61.0865 27.964 62.0223 29.4574 62.0223C34.6874 62.0223 41.6039 55.8629 41.6039 51.008C41.6039 48.3026 40.2013 48.2062 39.1735 48.2062C38.4239 48.2062 38.0548 48.3934 38.0548 48.6713C38.0548 49.0456 38.617 49.2328 38.8952 49.2328C42.3535 49.2328 48.5204 43.9128 48.5204 39.3414C48.5204 36.0746 45.5278 35.9838 44.6873 35.9838C39.27 35.9838 35.9026 40.368 32.6317 44.8486C29.4574 49.2328 23.4722 55.0235 16.4648 56.7023C23.6596 54.0877 28.4239 48.7677 31.7913 44.1056C35.0622 39.7214 40.2921 35.1444 45.806 35.1444C47.4869 35.1444 50.4795 36.0802 50.4795 39.2507C50.4795 43.822 42.6317 49.6128 39.1735 49.6128C37.68 49.6128 37.4926 49.0513 37.4926 48.677C37.4926 48.0247 38.8952 47.4632 40.0139 47.4632C41.6039 47.4632 43.8469 48.3991 43.8469 51.008C43.8469 55.205 36.9304 62.4874 29.0826 62.4874C26.2774 62.4874 23.8527 60.7122 23.8527 58.2904C23.8527 54.7456 28.617 49.5164 34.04 49.5164C35.8174 49.5164 36.8452 50.8208 36.8452 51.7567C36.8396 53.997 33.3813 57.8253 28.9861 57.5417Z" fill="#FFF5E5"/>
<path fill-rule="evenodd" clip-rule="evenodd" d="M100.655 55.585C100.564 55.585 100.468 55.6757 100.377 55.7721C97.2024 58.9426 94.2098 61.2793 92.4324 61.2793C91.2172 61.2793 90.7516 60.905 90.7516 59.4133C90.7516 59.1354 90.7516 58.8518 90.8424 58.5739C94.2042 58.4832 98.9742 56.2429 98.9742 53.8154C98.9742 53.3503 98.6959 52.6017 97.3842 52.6017C95.3285 52.6017 92.1542 54.6548 90.1894 56.7987C87.0151 60.4399 84.5847 61.3701 84.0225 61.3701C83.4603 61.3701 82.7164 60.9957 84.2099 58.9426L88.7868 52.7832H86.5438L84.3007 55.7721C81.3081 59.7877 78.9742 61.4665 77.759 61.4665C77.106 61.4665 76.3564 61.0014 77.8499 58.9483L82.5233 52.7889H80.1894C77.6682 56.1465 76.3564 57.5474 70.286 61.0978L76.4529 52.7889H74.2099L73.2729 54.1898C73.0855 52.8853 72.2451 52.511 70.939 52.511C68.696 52.511 65.8908 54.2862 64.1191 56.2429C61.3139 59.2318 58.2304 61.4665 56.5495 61.4665C55.5217 61.4665 55.0561 61.1886 55.0561 59.8784C55.0561 59.4133 55.1469 58.9426 55.2435 58.5739C58.7926 58.5739 62.7165 55.4942 62.7165 53.8154C62.7165 53.3503 62.4382 52.6981 61.1265 52.6981C58.7926 52.6981 55.0504 55.3127 53.5569 57.8309C51.8761 56.9915 52.5291 54.6605 55.4252 52.7889H52.7165L46.8278 59.039C48.5087 56.708 49.9113 54.6548 49.9113 53.9062C49.9113 53.3447 49.5365 52.6924 48.6052 52.6924C47.4865 52.6924 43.7444 55.1199 41.9727 57.2638C45.2435 54.3712 47.8613 53.2483 48.1396 53.2483C48.7018 53.2483 48.5144 53.8098 48.2304 54.1841L42.3418 62.0223H44.6757L51.5922 54.7399C51.3139 56.1408 51.9669 57.5417 53.3695 58.1939C52.9948 58.7554 52.8074 59.4077 52.8074 59.9692C52.8074 61.3701 54.1134 62.2095 55.516 62.2095C57.2934 62.2095 59.8147 60.7178 62.2452 58.6647C61.9669 59.2262 61.8704 59.782 61.8704 60.1563C61.8704 60.9957 62.5234 62.2095 64.0169 62.2095C65.5103 62.2095 67.4751 61.2736 69.156 59.9692L67.1912 62.8617C66.8164 63.0489 66.4416 63.3268 65.976 63.5139C58.9686 67.433 53.4547 70.8871 53.4547 73.6889C53.4547 74.6247 54.0169 75.2769 55.2321 75.2769C58.3156 75.2769 63.0799 70.7963 68.3155 63.7068L69.6216 62.028C73.1707 60.0656 75.3229 58.6704 77.282 56.708L76.4416 57.8253C74.1077 60.9957 76.4416 61.9316 77.4694 61.9316C78.7755 61.9316 80.3655 60.8142 81.8589 59.4133C81.3933 61.0014 82.3246 61.9316 83.5398 61.9316C84.9424 61.9316 87.0889 60.4399 88.8663 58.8518C88.6789 59.2262 88.588 59.6005 88.588 59.9692C88.588 61.5572 89.6159 62.3002 90.9219 62.3002C92.1372 62.3002 94.0963 61.4608 95.9702 60.1563C96.998 59.4077 98.1167 58.5683 99.2411 57.5417L96.1576 62.0223H98.2132L112.512 41.3945C111.683 42.2396 106.356 49.7999 100.655 55.585ZM96.3563 53.2483C97.3842 53.2483 97.2933 53.8098 97.2933 54.0877C97.2933 55.8629 93.835 58.1032 90.939 58.1939C91.6885 55.3978 94.772 53.2483 96.3563 53.2483ZM59.9169 53.2483C60.9448 53.2483 60.9448 54.0877 60.9448 54.2748C60.9448 56.4187 57.2083 58.1032 55.34 58.1939C56.0839 55.3014 58.7017 53.2483 59.9169 53.2483ZM65.3343 61.1829C64.6813 61.1829 64.1191 61.0921 64.1191 59.6912C64.1191 56.7987 67.4808 53.1575 70.0078 53.1575C71.6886 53.1575 71.876 54.2748 71.876 54.8363C71.876 58.1996 67.2991 61.1829 65.3343 61.1829ZM64.2156 67.1551C61.3195 71.2614 57.6739 74.9933 55.4309 74.9933C54.8687 74.9933 54.403 74.8062 54.403 74.1539C54.403 71.2614 60.1043 67.3423 66.1747 63.8883C66.3621 63.7975 66.453 63.7975 66.6404 63.7011L64.2156 67.1551Z" fill="#FFF5E5"/>
<path fill-rule="evenodd" clip-rule="evenodd" d="M111.307 50.0777H89.9102L90.7506 48.864C91.2162 49.3291 91.5002 49.4255 93.0845 49.4255C94.5779 49.5163 111.307 49.987 111.307 49.987C111.494 49.987 111.494 50.0777 111.307 50.0777Z" fill="#FFF5E5"/>
<path fill-rule="evenodd" clip-rule="evenodd" d="M118.412 53.3447C117.663 53.9062 115.607 57.1731 111.683 57.1731C110.377 57.1731 109.44 56.4244 109.44 55.1199C109.44 51.8531 114.301 49.3349 117.85 49.3349C119.531 49.3349 122.524 49.6128 122.524 53.4411C122.524 58.4832 117.759 61.8408 112.995 61.8408C109.724 61.8408 107.765 60.5364 103.932 60.5364C99.2587 60.5364 97.5778 62.7767 97.0156 64.1776C97.2939 63.5253 98.9804 61.3758 103.273 61.3758C106.266 61.3758 108.787 62.7767 111.871 62.7767C116.919 62.7767 123.83 58.2053 123.83 53.3504C123.83 50.8322 122.336 48.7791 118.6 48.7791C114.023 48.7791 108.413 52.2331 108.413 55.5907C108.413 56.4301 109.162 57.831 111.496 57.831C115.045 57.8253 117.85 54.0934 118.412 53.3447Z" fill="#FFF5E5"/>
<path fill-rule="evenodd" clip-rule="evenodd" d="M73.3758 69.7698C73.3758 68.7432 72.9102 68.9304 72.9102 68.834H75.9936C78.4241 68.834 78.7988 70.8871 78.7988 71.5394C78.7988 73.1274 77.2088 74.0576 75.9936 74.0576H72.9102C72.9102 74.0576 73.3758 74.1483 73.3758 73.1217V69.7698ZM75.244 69.0211H74.8693C74.6819 69.0211 74.591 69.1119 74.591 69.2083V73.3146C74.591 73.5925 74.6819 73.8761 74.9658 73.8761H75.4314C76.4593 73.8761 77.4871 73.0367 77.4871 71.4486C77.4871 70.8871 77.2032 69.0211 75.244 69.0211Z" fill="#FFF5E5"/>
<path fill-rule="evenodd" clip-rule="evenodd" d="M84.682 70.7964C84.9602 70.5185 85.4315 70.3313 85.988 70.3313C86.7376 70.3313 87.7654 70.9835 87.7654 72.1973C87.7654 73.411 86.7376 74.1597 85.7098 74.1597C85.335 74.1597 84.9602 74.0689 84.682 73.7853V75.3734C84.682 76.2128 84.9602 76.122 85.0568 76.122H83.1885C83.1885 76.122 83.5633 76.2128 83.5633 75.3734V71.3579C83.5633 70.7056 83.1885 70.7056 83.0977 70.7056L84.6877 70.3313V70.7964H84.682ZM84.682 73.411C84.7728 73.6889 84.9602 73.8761 85.335 73.8761C85.9881 73.8761 86.4537 73.3146 86.4537 72.288C86.4537 71.2614 85.8915 70.7 85.4259 70.7C85.1476 70.7 84.8637 70.8871 84.6763 71.0743V73.411H84.682Z" fill="#FFF5E5"/>
<path fill-rule="evenodd" clip-rule="evenodd" d="M94.0228 73.2238C94.0228 74.1596 94.3975 73.9725 94.3975 74.0632H92.5293C92.6202 73.9725 92.9041 74.154 92.9041 73.2238V71.2614C92.9041 70.6092 92.6258 70.6092 92.5293 70.6092L94.0228 70.2349V73.2238Z" fill="#FFF5E5"/>
<path fill-rule="evenodd" clip-rule="evenodd" d="M93.3688 69.3048C93.6471 69.3048 93.931 69.1176 93.931 68.9305C93.931 68.7433 93.6527 68.5562 93.3688 68.5562C93.0906 68.5562 92.8066 68.7433 92.8066 68.9305C92.8066 69.1176 93.0906 69.3048 93.3688 69.3048Z" fill="#FFF5E5"/>
<path fill-rule="evenodd" clip-rule="evenodd" d="M91.8763 73.5017C91.8763 73.8761 92.1546 73.8761 92.2511 73.8761L90.8485 74.0632V73.5982C90.5702 73.9725 90.0081 74.1597 89.5424 74.1597C88.1398 74.1597 88.2364 73.1331 88.2364 72.5716V71.1707C88.2364 70.3313 87.9581 70.422 87.8616 70.422H89.355V72.9402C89.355 73.7796 89.8207 73.8761 89.9172 73.8761C90.1046 73.8761 90.6668 73.7853 90.8542 73.3146V71.2614C90.8542 70.3256 90.4794 70.422 90.4794 70.422H91.882V73.5017H91.8763Z" fill="#FFF5E5"/>
<path fill-rule="evenodd" clip-rule="evenodd" d="M83.0915 71.8229H80.1954C80.1954 71.9137 80.1954 72.0101 80.1954 72.0101C80.1954 73.3146 80.945 73.7853 81.598 73.7853C82.0637 73.7853 82.535 73.5074 82.8133 73.2238C82.535 73.8761 81.8763 74.3411 81.0359 74.3411C79.7298 74.3411 78.9802 73.2238 78.9802 72.3788C78.9802 70.9779 80.4737 70.2349 81.2233 70.2349C81.8763 70.2349 82.995 70.6092 83.0915 71.8229ZM81.2233 70.5185C80.5702 70.5185 80.3828 71.1707 80.2863 71.6358H82.1545C82.1545 70.9835 81.6889 70.5185 81.2233 70.5185Z" fill="#FFF5E5"/>
<path fill-rule="evenodd" clip-rule="evenodd" d="M97.8558 73.1274C97.8558 73.7796 97.2028 74.3411 96.175 74.3411C95.6128 74.3411 95.238 74.2504 94.8689 73.9668V73.3146C95.0563 73.7796 95.5219 74.154 96.0841 74.154C96.5498 74.154 96.9246 73.8761 96.9246 73.5017C96.9246 73.1274 96.4589 72.9402 95.8967 72.6623C95.4311 72.4752 94.6815 72.288 94.6815 71.4486C94.6815 70.7964 95.3346 70.3313 96.3624 70.3313C96.6406 70.3313 97.0154 70.3313 97.5776 70.6092V71.2614C97.0154 70.5128 96.4589 70.5128 96.2715 70.5128C95.8967 70.5128 95.6185 70.7907 95.6185 71.0743C95.6185 71.4486 95.8967 71.6358 96.6463 71.9137C96.828 72.0101 97.8558 72.288 97.8558 73.1274Z" fill="#FFF5E5"/>
<path fill-rule="evenodd" clip-rule="evenodd" d="M101.315 74.2504C101.406 74.1596 101.594 74.1596 101.594 73.5017V69.5826C101.594 68.834 101.315 68.834 101.219 68.7432L102.712 68.3689V73.5017C102.712 74.154 102.99 74.154 103.087 74.2504H101.315Z" fill="#FFF5E5"/>
<path fill-rule="evenodd" clip-rule="evenodd" d="M109.065 74.154C109.627 72.8495 111.211 70.0477 112.239 68.5561H108.877C108.787 68.5561 108.599 68.5561 108.412 68.3689L107.85 69.6734C108.037 69.4862 108.315 69.3955 108.599 69.3955H111.03C110.842 69.6734 110.093 71.0743 109.252 72.3844C108.69 73.3202 108.412 73.8761 108.224 74.1596H109.065V74.154Z" fill="#FFF5E5"/>
<path fill-rule="evenodd" clip-rule="evenodd" d="M104.767 74.154C105.42 72.8495 106.913 70.0477 107.941 68.5561H104.67C104.483 68.5561 104.296 68.5561 104.108 68.3689L103.643 69.6734C103.83 69.4862 104.017 69.3955 104.296 69.3955H106.726C106.539 69.6734 105.789 71.0743 105.045 72.3844C104.392 73.3202 104.108 73.8761 103.927 74.1596H104.767V74.154Z" fill="#FFF5E5"/>
<path fill-rule="evenodd" clip-rule="evenodd" d="M113.086 74.0632C113.835 74.0632 114.488 73.411 114.488 72.288C114.488 71.5393 114.023 70.6092 113.182 70.6092C112.717 70.6092 112.245 70.8871 111.967 71.2614L112.433 68.5561H114.676C114.767 68.5561 115.051 68.5561 115.329 68.3689L114.767 69.3955H112.62L112.342 70.6999C112.717 70.422 113.279 70.2349 113.744 70.2349C114.96 70.2349 115.709 71.2614 115.709 72.1008C115.709 73.4053 114.494 74.2447 113.188 74.2447C113.001 74.2447 112.348 74.2447 111.694 73.9668L111.604 73.2182C112.245 74.0632 112.807 74.0632 113.086 74.0632Z" fill="#FFF5E5"/>
<path fill-rule="evenodd" clip-rule="evenodd" d="M104.302 0.150391L103.461 0.524721L96.732 6.96203C96.1699 6.58771 95.6134 6.49696 94.9546 6.5877C93.6486 6.86561 92.7116 8.36293 92.9899 9.94532C93.0807 10.3196 93.2681 10.694 93.4555 10.9719L72.7117 31.8776C71.6839 30.7602 70.1904 30.1987 68.7878 30.4767C67.8508 30.6638 67.1069 31.2253 66.5448 31.8776L52.1553 20.6761C52.4335 20.0238 52.6209 19.1844 52.4335 18.345C52.1552 16.3826 50.4687 15.0782 48.7879 15.4525C48.3222 15.5432 47.9474 15.7304 47.5726 16.014L41.2183 11.5334L40.4688 11.4426L40.747 12.282L46.3518 17.8799C46.2609 18.4414 46.1644 18.9973 46.3518 19.6552C46.63 21.6176 48.3165 22.922 49.9974 22.5477C50.5596 22.3605 51.0252 22.1734 51.4 21.799C51.5874 21.5211 51.6783 21.5211 51.7748 21.6119C51.7748 21.6119 57.1013 26.2796 58.9695 27.862C60.8378 29.4501 63.8304 31.7811 64.3869 32.2462C64.9491 32.8077 65.693 33.3635 65.693 33.3635C65.4147 34.2029 65.3182 35.2295 65.5056 36.1653C66.0678 38.8707 68.4016 40.5495 70.7355 40.0844C73.0694 39.6193 74.5686 37.0955 74.0064 34.3901C73.9155 33.925 73.7281 33.4543 73.4442 32.9892L93.9098 11.6185C94.472 12.0835 95.2159 12.3671 95.9654 12.1799C97.368 11.902 98.2993 10.4047 97.9302 8.91308C97.9302 8.63517 97.8394 8.448 97.7428 8.26084L104.001 0.984123L104.302 0.150391ZM49.3614 20.9596C48.3336 21.1468 47.3057 20.3074 47.1184 19.0937C46.931 17.7892 47.584 16.6662 48.6118 16.3883C49.6396 16.2011 50.6675 17.0405 50.8549 18.2543C51.1331 19.5587 50.3892 20.6817 49.3614 20.9596ZM71.0365 37.1976C70.0087 37.3847 69.0717 36.6361 68.89 35.5187C68.7026 34.4014 69.3556 33.3749 70.2926 33.1877C71.2296 32.9098 72.1609 33.6528 72.4391 34.7758C72.6265 35.8931 71.9735 37.0104 71.0365 37.1976ZM96.1755 10.9719C95.3351 11.159 94.4947 10.5068 94.3073 9.48024C94.1199 8.45368 94.6821 7.51785 95.5225 7.33636C96.3629 7.1492 97.2034 7.80144 97.3908 8.828C97.5725 9.85457 97.016 10.7847 96.1755 10.9719Z" fill="#FFF5E5"/>
<path fill-rule="evenodd" clip-rule="evenodd" d="M70.8477 36.5454C71.5008 36.4546 71.8755 35.706 71.7847 34.9573C71.5973 34.2086 71.0351 33.7436 70.3821 33.84C69.729 33.9307 69.3543 34.6794 69.4451 35.4281C69.6325 36.171 70.1947 36.7325 70.8477 36.5454Z" fill="#FFF5E5"/>
</g>
<defs>
<clipPath id="clip0_58_97">
<rect width="125" height="76" fill="white" transform="translate(0.5 0.133301)"/>
</clipPath>
</defs>
</svg>
