<svg width="153" height="47" viewBox="0 0 153 47" fill="none" xmlns="http://www.w3.org/2000/svg">
<g clip-path="url(#clip0_58_124)">
<path fill-rule="evenodd" clip-rule="evenodd" d="M28.4264 36.4094C23.6434 39.8007 17.0439 43.8065 11.0273 43.8065C4.89709 43.8065 0.5 39.6566 0.5 33.4506C0.5 30.082 1.81686 26.8121 3.29264 23.8457C6.16096 18.0873 10.3688 12.9207 15.3184 8.82379C19.1479 5.66009 23.7417 3.2399 28.5702 2.06394C29.8871 1.7453 31.2342 1.5708 32.5813 1.5708C34.3069 1.5708 36.161 1.79841 37.6898 2.64813L39.9073 3.85443C40.3311 4.09721 40.8457 4.13514 41.3074 4.13514C42.9572 4.13514 44.3649 3.1792 45.6364 2.23844L46.1813 2.80745C43.1918 4.83313 41.875 7.00295 40.649 10.3639L40.104 10.0073C40.3235 9.26382 40.4976 8.5279 40.4976 7.73887C40.4976 3.89995 35.7145 2.11705 32.4754 2.11705C30.0611 2.11705 27.6015 2.86056 25.4521 3.91512C17.6494 7.76163 11.436 14.6732 7.68216 22.48C5.88851 26.1976 4.51868 30.4007 4.51868 34.581C4.51868 39.5655 7.25078 42.8885 12.3214 42.8885C17.8235 42.8885 24.1731 38.6627 28.6383 35.6659C29.3573 34.0499 30.152 32.5401 31.2266 31.129C34.5642 26.7362 39.9754 22.1614 45.7953 22.1614C48.8604 22.1614 50.2756 23.6332 50.3589 26.6073L52.3039 23.2084H55.9669L47.4376 38.2378C47.0592 38.9055 46.6732 39.6869 46.6732 40.4684C46.6732 41.3712 47.5662 41.8947 48.3836 41.8947C50.5027 41.8947 52.8488 40.0056 54.4154 38.7765C58.4719 35.6128 62.1576 31.9863 64.6248 27.419L66.9179 23.1932H70.7853L69.7333 25.0899C71.6556 23.9367 73.8428 22.9732 76.1284 22.9732C77.3922 22.9732 78.6637 23.5649 78.6637 24.9761C78.6637 25.9776 78.1188 26.8424 77.3923 27.4646C77.536 27.5632 77.6723 27.6315 77.8463 27.6315C78.4972 27.6315 79.1632 27.1763 79.693 26.85C82.9851 24.8092 85.9669 21.9338 87.9347 18.588L90.6062 14.0132H94.2238L89.5996 22.0931H94.973L94.6779 22.7911H89.3423L80.3817 38.3592C80.0411 38.9586 79.6854 39.6566 79.6854 40.3545C79.6854 41.2498 80.7601 41.6519 81.5093 41.6519C83.197 41.6519 84.6652 40.6049 85.9745 39.649C88.3963 37.8964 90.6138 35.7873 92.7404 33.6782C94.2768 32.1532 95.7601 30.56 97.024 28.8074C97.6976 27.8667 98.2954 26.888 98.8933 25.9093L100.536 23.216H104.115L95.2606 38.7765C94.9428 39.3303 94.7384 39.9676 94.7384 40.6049C94.7384 41.2953 95.2682 41.925 95.9796 41.925C98.0911 41.925 100.43 40.1497 101.981 38.7993L108.414 33.185C111.971 29.035 117.776 22.4193 123.679 22.4193C125.579 22.4193 127.758 23.4132 127.758 25.583C127.758 27.2142 126.668 28.7695 125.616 29.8999C123.293 32.396 119.812 33.9134 116.58 34.7934C114.945 35.241 113.326 35.3397 111.646 35.3473C111.123 36.5384 110.594 37.7523 110.594 39.0876C110.594 40.9539 112.213 42.4561 114.052 42.4561C118.465 42.4561 124.913 37.8888 128.114 35.3169C130.823 33.1167 133.313 30.6662 135.584 28.0032C136.446 26.9866 137.385 25.9244 138.043 24.7409L138.906 23.2008H142.516L139.882 28.1929C142.713 25.621 146.156 22.9959 150.167 22.9959C151.484 22.9959 152.514 23.8153 152.514 25.1658C152.514 26.4176 151.416 27.8818 150.092 27.8818C149.395 27.8818 148.692 27.2142 148.692 26.5086C148.692 25.3858 149.887 24.5664 150.924 24.5664C151.129 24.5664 151.34 24.5892 151.53 24.6119C151.189 23.9139 150.69 23.5877 149.88 23.5877C148.011 23.5877 146.126 24.5057 144.559 25.4389C141.018 27.5556 138.293 30.78 136.242 34.323L131.088 43.1844H127.38L135.743 28.724C133.919 30.8786 132.004 32.9119 129.847 34.7327C127.433 36.7736 124.867 38.6475 122.158 40.2711C119.373 41.9402 116.232 43.4576 112.902 43.4576C109.716 43.4576 106.772 41.6595 106.772 38.2075C106.772 37.1833 107.021 36.1894 107.264 35.1955C103.949 38.2682 99.1128 43.2072 94.3222 43.2072C92.521 43.2072 91.0376 42.5623 91.0376 40.6125C91.0376 39.2924 91.9079 38.124 92.5361 37.0239L95.5179 31.7815C92.6042 34.9831 89.5164 38.0709 85.9821 40.5746C84.0371 41.9554 81.7666 43.2375 79.3146 43.2375C77.7631 43.2375 76.1057 42.3195 76.1057 40.567C76.1057 39.1027 77.0592 37.6992 77.7555 36.4777L85.3085 23.178C83.9463 24.4526 82.5462 25.6741 81.0704 26.8273C79.7989 27.8211 78.3004 28.9819 76.6052 28.9819C75.5759 28.9819 74.6677 28.3371 74.6677 27.2142C74.6677 26.0914 75.6591 25.1961 76.7565 25.1961C77.0744 25.1961 77.3317 25.2947 77.6042 25.4465C77.6798 25.2416 77.7555 25.014 77.7555 24.7788C77.7555 24.0126 76.8019 23.5498 76.1586 23.5498C74.2893 23.5498 72.2989 24.4678 70.7323 25.4161C69.1581 26.3721 68.144 27.9122 67.2434 29.4902L59.3952 43.1768H55.5884L61.1737 33.3899C57.4124 37.3805 51.32 43.3058 45.6136 43.3058C44.0773 43.3058 42.6545 42.5396 42.6545 40.8629C42.6545 39.8159 43.0556 38.8448 43.4794 37.9116C40.7625 40.7566 37.039 43.6776 32.9295 43.6776C30.2428 43.6776 27.9269 41.7809 27.9269 39.0041C27.9421 38.1089 28.1767 37.244 28.4264 36.4094Z" fill="#FFF5E5"/>
<path fill-rule="evenodd" clip-rule="evenodd" d="M105.507 18.9824C104.758 18.9824 104.16 18.5803 104.16 17.7761C104.16 16.585 105.356 14.9614 106.597 14.9614C107.377 14.9614 107.747 15.667 107.747 16.3877C107.747 17.6851 106.885 18.9824 105.507 18.9824Z" fill="#FFF5E5"/>
<path fill-rule="evenodd" clip-rule="evenodd" d="M49.633 25.9701C49.633 23.9899 48.0815 22.7229 46.129 22.7229C44.0099 22.7229 42.2238 23.7775 40.5588 25.0141C37.1986 27.4798 34.3378 30.9318 32.5139 34.6721C31.8252 36.0908 31.25 37.4717 31.25 39.0573C31.25 40.825 32.2944 42.4562 34.2091 42.4562C38.6592 42.4562 43.3287 37.4944 45.8565 34.1107C47.4534 31.9485 49.633 28.7013 49.633 25.9701Z" fill="white"/>
<path fill-rule="evenodd" clip-rule="evenodd" d="M111.82 34.672C112.161 34.6796 112.486 34.7024 112.819 34.7024C116.051 34.7024 119.388 33.0712 121.682 30.8558C123.127 29.4599 125.186 26.9031 125.186 24.7485C125.186 23.6256 124.02 23.1704 123.044 23.1704C118.48 23.178 113.924 31.1669 111.82 34.672Z" fill="white"/>
</g>
<defs>
<clipPath id="clip0_58_124">
<rect width="152" height="46" fill="white" transform="translate(0.5 0.133301)"/>
</clipPath>
</defs>
</svg>
