<svg width="196" height="61" viewBox="0 0 196 61" fill="none" xmlns="http://www.w3.org/2000/svg">
<g clip-path="url(#clip0_58_145)">
<path fill-rule="evenodd" clip-rule="evenodd" d="M8.11773 46.206L7.94459 45.9333L9.15651 45.1696L1.75745 33.3878L0.563755 34.1333L0.390625 33.8606L10.3775 27.6606L12.3822 30.8333L12.1271 30.9878C11.3252 30.0333 10.496 29.4969 9.63945 29.4242C8.79203 29.3424 7.75324 29.6969 6.49577 30.4787C6.18595 30.6515 5.96726 30.8151 5.81236 30.906C5.65745 31.006 5.51165 31.1151 5.36586 31.2151L8.81936 36.7151C9.01072 36.6151 9.21118 36.5151 9.36609 36.4242C9.53922 36.3424 9.70324 36.2515 9.85815 36.1515C10.7238 35.6242 11.2341 35.0515 11.389 34.506C11.5439 33.9424 11.389 33.2515 10.8969 32.4151L11.1521 32.2787L14.1682 37.0697L13.9313 37.206C13.3663 36.3606 12.7558 35.8969 12.1271 35.7969C11.5166 35.6969 10.7147 35.9515 9.7488 36.5606C9.55745 36.6787 9.39343 36.7787 9.30231 36.8333C9.20207 36.9151 9.11095 36.9696 9.01072 37.0333L12.7194 42.9424L13.8948 42.2151L14.068 42.506L8.11773 46.206ZM18.1775 23.606L21.2574 29.3969C21.3121 29.3787 21.3759 29.3606 21.4579 29.3151L21.8133 29.1424C22.7701 28.6333 23.3259 28.106 23.4626 27.5787C23.5993 27.0697 23.4079 26.306 22.8703 25.2878C22.1687 23.9969 21.5399 23.2151 20.9476 22.9606C20.3645 22.706 19.6173 22.8242 18.6696 23.3151C18.5694 23.3696 18.4691 23.4242 18.378 23.4878C18.3051 23.5242 18.2413 23.5606 18.1775 23.606ZM19.9271 38.806L26.1416 35.4969L25.9867 35.206L24.7292 35.8696L21.4306 29.7242L21.7222 29.5515C21.8224 29.4969 21.9773 29.4151 22.1687 29.3151C22.9888 28.8697 23.5993 28.6878 24.0093 28.7696C24.4194 28.8696 24.793 29.2151 25.1301 29.8424L26.1142 31.6787C26.6792 32.7515 27.3717 33.4424 28.1553 33.7515C28.9208 34.0424 29.7864 33.9696 30.7067 33.4787C31.2717 33.1696 31.6909 32.8333 31.9642 32.4242C32.2376 32.0151 32.3743 31.5242 32.3925 30.9969L32.0553 30.9606C32.0189 31.3515 31.9551 31.6242 31.8549 31.8424C31.7729 32.0424 31.6817 32.1787 31.5633 32.2333C31.4084 32.3333 31.2535 32.3333 31.135 32.2515C31.0166 32.1697 30.8617 31.9424 30.643 31.5424L29.6406 29.6424C29.2488 28.8969 28.9117 28.3696 28.6383 28.0969C28.4014 27.8151 28.1007 27.5969 27.7544 27.4697C27.3808 27.3333 26.9343 27.2969 26.4423 27.3515C25.932 27.4333 25.1483 27.6424 24.0913 27.9969C25.2121 27.2696 25.9593 26.4697 26.3056 25.5878C26.661 24.6878 26.5972 23.806 26.1507 22.9515C25.5584 21.8515 24.7201 21.2878 23.6357 21.2515C22.5331 21.2151 20.9841 21.7424 18.9521 22.8151L13.0474 25.9424L13.2023 26.2333L14.4598 25.5696L21.0114 37.8424L19.7539 38.506L19.9271 38.806ZM33.8504 25.8606L36.9668 24.5515L33.4222 20.7151L33.8504 25.8606ZM33.1853 31.6333L33.0486 31.2969L33.1853 31.2606C33.3948 31.1878 33.568 31.0424 33.6773 30.8515C33.7775 30.6787 33.814 30.4606 33.7775 30.206L32.5018 15.8424L33.9507 15.2151L44.2656 26.5606L44.9946 26.2515L45.1313 26.5878L39.582 28.9333L39.4453 28.5969L40.3474 28.206L37.2128 24.8424L33.8596 26.2515L34.1694 29.2242C34.1876 29.4424 34.224 29.5969 34.2514 29.7151C34.2696 29.8151 34.2878 29.8878 34.306 29.9515C34.4245 30.206 34.5794 30.3606 34.7525 30.3969C34.953 30.4333 35.2446 30.3787 35.6182 30.2242L35.7549 30.1696L35.928 30.4787L33.1853 31.6333ZM41.4409 12.706L43.4 14.1151L46.735 23.7969C46.9537 24.4242 47.0084 24.8515 46.9355 25.1242C46.8353 25.3969 46.5983 25.5969 46.1701 25.7515C46.0698 25.7696 45.9696 25.806 45.9149 25.8333C45.8785 25.8333 45.8147 25.8515 45.76 25.8696L45.8785 26.206L49.2864 25.0333L49.1862 24.6969C49.1224 24.7151 49.0495 24.7424 48.9948 24.7787C48.9128 24.806 48.8217 24.8424 48.7397 24.8787C48.3296 25.0151 47.9925 24.9969 47.7829 24.8424C47.546 24.6878 47.3364 24.2969 47.1177 23.6878L43.9558 14.5333L55.5282 22.8878L57.8245 22.106L53.724 10.206C53.5054 9.57874 53.4507 9.15147 53.5327 8.89692C53.6147 8.64238 53.8425 8.45147 54.2434 8.30601C54.3619 8.26965 54.4621 8.22419 54.5168 8.20601C54.5988 8.18783 54.6535 8.16965 54.7173 8.15147L54.5988 7.8151L51.1909 8.98783L51.3093 9.3242C51.3458 9.30601 51.4096 9.28783 51.4642 9.26965C51.5189 9.25147 51.6009 9.21511 51.7194 9.16965C52.1294 9.03329 52.4483 9.05147 52.6761 9.20602C52.9131 9.36056 53.1226 9.75146 53.3413 10.3424L56.0841 18.2878L45.7509 10.8515L40.967 12.4969L41.0855 12.8515L41.4409 12.706ZM72.8231 13.9969L73.1785 13.9424L74.0624 18.506L73.8072 18.5606C73.7252 18.306 73.6159 18.1333 73.4701 18.0333C73.3334 17.9333 73.1602 17.8969 72.9962 17.9333C72.9598 17.9333 72.5042 18.206 71.6659 18.7515C70.8549 19.2787 69.9619 19.6515 69.0142 19.8515C68.0301 20.0242 67.0733 20.0515 66.1348 19.8697C65.1962 19.6969 64.3124 19.3424 63.4923 18.8333C62.6357 18.306 61.8885 17.606 61.3145 16.7787C60.7404 15.9606 60.3759 15.0151 60.1754 13.9787C59.9385 12.8151 59.9567 11.6151 60.2301 10.4606C60.467 9.3242 60.9682 8.25147 61.6972 7.35147C62.2075 6.70602 62.8362 6.17874 63.5652 5.7242C64.3032 5.29692 65.1142 4.99692 65.9616 4.84238C66.882 4.64238 67.8661 4.64238 68.9049 4.84238C69.9437 5.0151 70.4722 5.09692 70.5177 5.09692C70.6909 5.06056 70.8275 4.97874 70.9096 4.8242C71.0098 4.68783 71.028 4.5151 71.0098 4.3151L71.3014 4.26056L72.1852 8.84238L71.9119 8.89692C71.2832 7.43329 70.5177 6.36965 69.6156 5.74237C68.7135 5.09692 67.6747 4.87874 66.5357 5.09692C66.0254 5.2151 65.5972 5.38783 65.2418 5.64237C64.8773 5.92419 64.5857 6.28783 64.3761 6.69692C64.1028 7.20601 63.9843 7.88783 63.9843 8.69692C63.9843 9.5151 64.1574 10.806 64.5128 12.6151C64.8864 14.5151 65.178 15.806 65.4149 16.506C65.6336 17.2151 65.907 17.7787 66.1986 18.2242C66.5357 18.7151 66.964 19.0696 67.4925 19.2606C68.0392 19.4787 68.6133 19.5151 69.242 19.3969C70.5177 19.1424 71.4563 18.5515 72.085 17.5969C72.7046 16.6606 72.9598 15.4696 72.8231 13.9969ZM76.878 17.9878L76.8598 17.6515L78.2722 17.4969L76.8233 3.67874L75.3927 3.81511L75.3745 3.47874L82.3726 2.75146L82.4091 3.08783L80.9967 3.2242L81.6619 9.7242L86.464 4.20602C86.6371 4.01511 86.7738 3.83328 86.8376 3.69692C86.8923 3.56965 86.9196 3.4242 86.9196 3.28783C86.9014 3.08783 86.7829 2.95147 86.6098 2.86056C86.4367 2.76056 86.1815 2.74238 85.8626 2.76056L85.6257 2.79692L85.5892 2.42419L90.2729 1.93329L90.3093 2.30601H90.2546C89.6624 2.36056 89.1521 2.54237 88.6691 2.8151C88.1771 3.10601 87.6486 3.57874 87.0836 4.20602L84.6142 6.98783L91.3846 16.106L92.4871 15.9878L92.5236 16.3424L85.4981 17.0878L85.4617 16.7333L86.6553 16.5969L81.9717 9.92419L81.7348 10.1787L82.4638 17.0697L83.8761 16.9151L83.9126 17.2515L76.878 17.9878ZM104.032 16.7606L104.069 16.406L104.26 16.4242C104.652 16.4606 104.943 16.3696 105.144 16.1515C105.317 15.9151 105.435 15.5242 105.499 14.9606L106.793 2.76965L105.499 2.63329L105.536 2.26055L111.003 2.82419L113.354 12.2787L117.354 3.5151L123.086 4.10602L123.049 4.44237L121.637 4.28783L120.188 18.1242L121.6 18.2787L121.564 18.6151L114.584 17.8696L114.621 17.5333L116.015 17.6878L117.409 4.37874L111.295 17.5242L110.529 17.4242L107.094 3.70601L105.9 14.9606C105.846 15.606 105.864 16.0606 106 16.2878C106.137 16.5242 106.41 16.6606 106.821 16.7151C106.939 16.7151 107.039 16.7333 107.094 16.7333H107.249L107.231 17.0878L104.032 16.7606ZM125.956 14.7787L128.015 5.89692L126.794 5.6242L126.876 5.25146L133.109 6.67874L133.009 7.05147L132.007 6.8151L129.71 16.7333C129.574 17.3787 129.473 17.8878 129.437 18.2787C129.419 18.6515 129.437 18.9424 129.519 19.1606C129.692 19.6333 129.965 20.0242 130.403 20.3333C130.831 20.6424 131.341 20.8787 131.988 21.0424C133.182 21.3151 134.148 21.1606 134.85 20.5515C135.551 19.9606 136.089 18.8333 136.481 17.1515L138.166 9.88783C138.303 9.26056 138.321 8.83329 138.203 8.57874C138.103 8.3242 137.847 8.15147 137.437 8.05147C137.346 8.04238 137.255 8.01511 137.164 7.99692C137.109 7.99692 137.055 7.97874 137.009 7.96056L137.091 7.60601L140.244 8.33328L140.162 8.70601L139.989 8.66965C139.652 8.58783 139.36 8.66965 139.141 8.88783C138.923 9.10601 138.749 9.46965 138.631 10.006L136.927 17.3242C136.481 19.2969 135.77 20.5878 134.822 21.1969C133.884 21.7878 132.471 21.8787 130.585 21.4333C129.391 21.1606 128.407 20.7878 127.678 20.2969C126.958 19.8333 126.366 19.1787 125.974 18.4151C125.746 17.9969 125.628 17.5242 125.619 17.0424C125.619 16.5424 125.719 15.7969 125.956 14.7787ZM138.996 23.3878L150.45 27.5333L151.944 23.4424L151.689 23.3424C150.978 24.6333 150.14 25.4333 149.219 25.7696C148.281 26.0787 147.06 25.9878 145.593 25.4333L144.873 25.1606C144.691 25.0787 144.536 25.0242 144.399 24.9424L149.146 11.906L150.477 12.3787L150.577 12.0697L144.007 9.67874L143.889 9.98783L145.219 10.4787L140.453 23.5515L139.123 23.0606L138.996 23.3878ZM152.39 28.4424L152.527 28.1333L153.821 28.7242L159.489 16.006L158.195 15.4424L158.332 15.1333L164.728 17.9878L164.592 18.2787L163.316 17.7151L157.648 30.3969C157.785 30.4787 157.94 30.5515 158.095 30.6333C158.25 30.7151 158.505 30.8333 158.796 30.9696C160.245 31.6151 161.448 31.7878 162.405 31.5606C163.343 31.2878 164.227 30.5424 165.029 29.306L165.284 29.4242L163.516 33.3787L152.39 28.4424ZM165.12 34.3242L175.891 40.0424L177.914 36.2424L177.658 36.106C176.775 37.2787 175.836 37.9424 174.879 38.1242C173.922 38.3242 172.738 38.0424 171.344 37.306C171.171 37.206 170.988 37.106 170.797 36.9969C170.606 36.8787 170.405 36.7606 170.214 36.6424L173.512 30.4969C173.613 30.5515 173.704 30.5969 173.822 30.6515C173.941 30.706 174.114 30.806 174.314 30.906C175.335 31.4515 175.964 32.006 176.182 32.5878C176.419 33.1333 176.301 33.8969 175.872 34.7969L176.109 34.9333L178.779 29.9424L178.524 29.806C178.014 30.6515 177.485 31.1515 176.92 31.2969C176.374 31.4333 175.626 31.2787 174.706 30.7878C174.551 30.706 174.387 30.6151 174.214 30.5151C174.041 30.3969 173.877 30.2969 173.704 30.1787L176.765 24.4242C176.92 24.506 177.103 24.5787 177.257 24.6606C177.44 24.7424 177.686 24.8787 178.005 25.0333C179.317 25.7424 180.146 26.4606 180.492 27.2424C180.866 28.006 180.829 28.9878 180.392 30.1606L180.583 30.2787L182.351 26.9697L172 21.4878L171.845 21.7787L173.102 22.4424L166.569 34.6878L165.311 34.0242L165.12 34.3242ZM190.579 32.4697L186.989 37.9515C187.044 37.9878 187.089 38.0333 187.162 38.0878C187.217 38.1242 187.335 38.206 187.5 38.306C188.402 38.8878 189.131 39.106 189.659 38.9878C190.169 38.8515 190.753 38.306 191.363 37.3424C192.165 36.106 192.539 35.1878 192.502 34.5424C192.447 33.9151 191.974 33.306 191.09 32.7606C190.98 32.706 190.88 32.6333 190.78 32.5606C190.716 32.5242 190.652 32.4969 190.579 32.4697ZM178.087 41.3333L178.269 41.0606L179.463 41.8424L187.053 30.1969L185.859 29.4151L186.042 29.1424L191.646 32.7787C193.586 34.0151 194.807 35.106 195.29 36.0878C195.801 37.0424 195.7 38.0424 195.017 39.0787C194.489 39.9242 193.741 40.3878 192.775 40.506C191.837 40.6242 190.753 40.3697 189.577 39.7424C190.425 40.4878 190.989 41.0697 191.281 41.4878C191.6 41.8969 191.773 42.306 191.828 42.6969C191.892 43.0515 191.846 43.406 191.709 43.7696C191.591 44.1424 191.299 44.6696 190.825 45.3696L189.668 47.1697C189.413 47.5424 189.295 47.7969 189.276 47.9515C189.276 48.0878 189.331 48.206 189.495 48.306C189.614 48.3878 189.787 48.406 190.005 48.3878C190.224 48.3515 190.497 48.2697 190.853 48.1333L190.989 48.4242C190.516 48.6787 190.033 48.7969 189.541 48.7606C189.03 48.7242 188.52 48.5242 187.992 48.1787C187.108 47.606 186.616 46.906 186.497 46.0878C186.397 45.2424 186.679 44.3242 187.345 43.2878L188.484 41.5424C188.875 40.9606 189.012 40.4515 188.875 40.0515C188.757 39.6606 188.31 39.206 187.527 38.6969C187.345 38.5787 187.19 38.4787 187.099 38.4242C186.998 38.3606 186.898 38.306 186.807 38.2515L182.98 44.106L184.174 44.8878L183.991 45.1606L178.087 41.3333ZM74.0806 54.3242V56.7515C73.3516 57.2787 72.6044 57.6697 71.8481 57.9242C71.0827 58.1787 70.2808 58.3151 69.4152 58.3151C67.6656 58.3151 66.2988 57.806 65.2782 56.7878C64.2577 55.7878 63.7474 54.4242 63.7474 52.6969C63.7474 52.0333 63.8294 51.406 63.9661 50.8606C64.121 50.2878 64.3579 49.7606 64.6768 49.2787C65.1507 48.5333 65.7976 47.9333 66.6177 47.4969C67.4378 47.0697 68.3399 46.8515 69.2876 46.8515C70.0257 46.8515 70.7546 47.006 71.4289 47.2969C71.4745 47.306 71.511 47.3242 71.5474 47.3515C71.6021 47.3697 71.6841 47.406 71.7661 47.4515C72.0395 47.5697 72.2399 47.6242 72.3584 47.6242C72.4768 47.6242 72.5953 47.5878 72.6955 47.506C72.7958 47.406 72.8687 47.2878 72.9324 47.1515H73.1238V50.6696H72.9051C72.6682 49.4969 72.2581 48.5969 71.7296 47.9878C71.1829 47.3787 70.4904 47.0697 69.6885 47.0697C68.7318 47.0697 68.0392 47.4969 67.6474 48.3424C67.2556 49.1606 67.0551 50.6878 67.0551 52.8787C67.0551 54.7969 67.2282 56.1424 67.5836 56.9333C67.939 57.6969 68.5404 58.0878 69.3878 58.0878C70.0348 58.0878 70.5086 57.9151 70.8002 57.5787C71.0736 57.2242 71.2285 56.6787 71.2285 55.9333V54.306H70.3446V54.0515H74.8369V54.306L74.0806 54.3242ZM76.1581 58.0424V57.806H77.2334V47.3787H76.1581V47.1242H84.9605V49.9242H84.7874C84.6507 49.006 84.3409 48.3424 83.8215 47.9515C83.3112 47.5787 82.4911 47.3878 81.3885 47.3878H80.7598C80.6231 47.406 80.4864 47.406 80.3497 47.4242V52.2969C80.5046 52.3151 80.6596 52.3151 80.8236 52.3333H81.2336C82.0173 52.3333 82.564 52.1969 82.8829 51.906C83.2201 51.6151 83.3932 51.0878 83.4114 50.3606H83.6301V54.606H83.4296C83.4114 53.8424 83.211 53.3151 82.8647 53.0242C82.5093 52.7151 81.9079 52.5515 81.0423 52.5515H80.6322C80.532 52.5515 80.4409 52.5696 80.3588 52.5696V57.7969C80.532 57.8151 80.7142 57.8151 80.8691 57.8333H81.343C82.5184 57.8333 83.4023 57.6151 83.9673 57.1515C84.5504 56.6787 84.924 55.9151 85.1063 54.8424H85.325V58.0515L76.1581 58.0424ZM87.3934 47.4242H87.1018V47.1333H90.8834L96.3962 54.9424V48.6242C96.3962 48.1515 96.3416 47.8424 96.1958 47.6696C96.0591 47.4969 95.8404 47.4151 95.5124 47.4151H95.2025V47.1424H97.8906V47.4151H97.517C97.2072 47.4151 96.9885 47.4969 96.8701 47.6515C96.7698 47.806 96.7152 48.1424 96.7152 48.6333V58.0696H94.8927L88.7329 49.3242V56.5878C88.7329 57.0969 88.7876 57.406 88.9061 57.5878C89.0245 57.7424 89.2614 57.8424 89.5712 57.8424C89.6715 57.8424 89.7444 57.8424 89.7899 57.8242H89.9448V58.0787H87.2385V57.8242H87.357C87.3934 57.8424 87.4572 57.8424 87.5301 57.8424C87.8855 57.8424 88.0951 57.7424 88.2317 57.5878C88.3502 57.4151 88.4322 57.0787 88.4322 56.5878V48.9151L87.3934 47.4242ZM99.2757 58.0424V57.806H100.333V47.3787H99.2757V47.1242H108.06V49.9242H107.878C107.741 49.006 107.431 48.3424 106.921 47.9515C106.41 47.5787 105.609 47.3878 104.488 47.3878H103.859C103.722 47.406 103.586 47.406 103.449 47.4242V52.2969C103.631 52.3151 103.759 52.3151 103.923 52.3333H104.351C105.117 52.3333 105.663 52.1969 106 51.906C106.31 51.6151 106.493 51.0878 106.529 50.3606H106.748V54.606H106.556C106.52 53.8424 106.319 53.3151 105.973 53.0242C105.618 52.7151 105.016 52.5515 104.151 52.5515H103.741C103.64 52.5515 103.567 52.5696 103.467 52.5696V57.7969C103.65 57.8151 103.823 57.8151 103.978 57.8333H104.47C105.645 57.8333 106.529 57.6151 107.094 57.1515C107.659 56.6787 108.032 55.9151 108.215 54.8424H108.433V58.0515L99.2757 58.0424ZM115.049 58.0424H114.01L110.201 47.4151H109.591V47.1242H114.065V47.4151H113.399L115.933 54.5151L117.874 48.5878C117.892 48.4878 117.928 48.3696 117.956 48.2515C117.983 48.1333 117.974 48.0151 117.974 47.8787C117.974 47.7242 117.919 47.606 117.782 47.5242C117.664 47.4424 117.445 47.406 117.199 47.406H117.044V47.1151H119.459V47.406C119.441 47.3878 119.423 47.3878 119.377 47.3878H119.277C119.022 47.3878 118.803 47.506 118.63 47.7424C118.448 47.9969 118.238 48.4515 118.019 49.1333L115.049 58.0424ZM120.07 58.0424V57.806H121.145V47.3787H120.07V47.1242H128.872V49.9242H128.699C128.562 49.006 128.252 48.3424 127.733 47.9515C127.223 47.5787 126.421 47.3878 125.3 47.3878H124.671C124.535 47.406 124.398 47.406 124.261 47.4242V52.2969C124.416 52.3151 124.571 52.3151 124.735 52.3333H125.145C125.929 52.3333 126.475 52.1969 126.794 51.906C127.132 51.6151 127.305 51.0878 127.323 50.3606H127.542V54.606H127.35C127.332 53.8424 127.132 53.3151 126.776 53.0242C126.421 52.7151 125.819 52.5515 124.954 52.5515H124.544C124.443 52.5515 124.343 52.5696 124.27 52.5696V57.7969C124.453 57.8151 124.626 57.8151 124.781 57.8333H125.254C126.43 57.8333 127.314 57.6151 127.888 57.1515C128.471 56.6787 128.845 55.9151 129.027 54.8424H129.246V58.0515L120.07 58.0424Z" fill="#FFF5E5"/>
</g>
<defs>
<clipPath id="clip0_58_145">
<rect width="195" height="60" fill="white" transform="translate(0.5 0.133301)"/>
</clipPath>
</defs>
</svg>
