<svg width="143" height="77" viewBox="0 0 143 77" fill="none" xmlns="http://www.w3.org/2000/svg">
<g clip-path="url(#clip0_58_57)">
<path d="M16.2987 52.5398V61.0665H4.80658V52.5331H0.335938V75.4331H4.80658V65.7465H16.2987V75.4331H20.7362V52.5331H16.2987V52.5398Z" fill="#FFF5E5"/>
<path d="M43.8071 52.5464V64.493C43.8071 67.9664 43.4484 71.6464 37.7754 71.6464C32.1024 71.6464 31.6972 68.0397 31.6972 64.493V52.5464H27.2598V64.7797C27.2598 70.2397 28.781 76.0797 37.782 76.0797C46.7831 76.0797 48.2977 70.1597 48.2977 64.7797V52.5464H43.8071Z" fill="#FFF5E5"/>
<path d="M80.9669 52.5398V75.4331H96.3651V70.7998C96.3651 70.7998 86.5669 70.7998 85.431 70.7998V52.5398H80.9669Z" fill="#FFF5E5"/>
<path d="M109.976 51.8865C103.12 51.8865 97.7461 57.1731 97.7461 63.9198C97.7461 70.6665 103.12 75.9465 109.976 75.9465C116.831 75.9465 122.205 70.6598 122.205 63.9198C122.205 57.1731 116.831 51.8865 109.976 51.8865ZM109.976 71.5398C105.631 71.5398 102.23 68.1931 102.23 63.9198C102.23 59.6465 105.631 56.2998 109.976 56.2998C114.32 56.2998 117.721 59.6465 117.721 63.9198C117.721 68.1931 114.32 71.5398 109.976 71.5398Z" fill="#FFF5E5"/>
<path d="M124.019 52.5398V57.1998H131.194V75.4398H135.664V57.1998H142.659V52.5398H124.019Z" fill="#FFF5E5"/>
<path d="M71.6609 63.4331C73.0426 62.3531 73.8331 60.7731 73.8331 58.8665C73.8331 56.9665 73.0626 52.5398 65.9746 52.5398H54.25V75.4331H66.7186C71.7406 75.4331 74.6236 72.8931 74.6236 68.4664C74.617 66.3131 73.594 64.5931 71.6609 63.4331ZM65.7488 56.7398C68.2399 56.7398 69.0038 57.6464 69.0038 59.1531C69.0038 60.6598 68.3395 61.7331 65.8418 61.7331H58.6808V56.7398H65.7488ZM66.4396 71.2598H58.6808V65.5064H66.4662C68.7713 65.5064 69.7677 66.4064 69.7677 68.4664C69.7744 70.0064 69.1433 71.2598 66.4396 71.2598Z" fill="#FFF5E5"/>
<path d="M91.3232 0.193115H87.0651C87.0651 7.95311 85.1121 11.4731 81.0599 13.9131V0.193115H74.5034V16.7664C73.2812 17.1998 71.9659 17.6464 70.5576 18.1264C69.7671 18.3998 69.0032 18.6664 68.2592 18.9331V0.193115H61.696V21.6731C55.0664 25.0531 51.4727 29.7198 51.4727 40.2664H55.7307C55.7307 33.0664 57.4844 29.4998 61.6894 26.8465V40.2731H68.2525V23.8131C69.3619 23.3998 70.5576 22.9798 71.8397 22.5398C72.7497 22.2264 73.6332 21.9264 74.4968 21.6264V40.2731H81.0533V19.0331C87.3042 15.9998 91.3232 11.4598 91.3232 0.193115Z" fill="#FFF5E5"/>
</g>
<defs>
<clipPath id="clip0_58_57">
<rect width="142" height="76" fill="white" transform="translate(0.5 0.133301)"/>
</clipPath>
</defs>
</svg>
