<svg width="160" height="77" viewBox="0 0 160 77" fill="none" xmlns="http://www.w3.org/2000/svg">
<g clip-path="url(#clip0_58_88)">
<path fill-rule="evenodd" clip-rule="evenodd" d="M34.7005 1.24173V0.621568H19.9453V1.24173C21.9328 2.21172 23.3002 3.29303 23.9998 4.53335V42.4744C23.1571 43.5557 22.1713 44.4462 20.9629 45.0187V45.9887H33.6829V45.0187C32.6176 44.5098 31.6954 43.667 30.964 42.4744V4.53335C31.6 2.9909 32.9515 1.94139 34.7005 1.24173ZM89.158 0.621568V1.24173C91.3204 2.05271 92.6719 3.16581 92.2108 4.53335L83.0524 31.2638C82.798 31.9953 82.2892 31.9794 82.0348 31.2638L72.8764 6.33022C71.9383 3.75417 73.5124 1.67107 75.4204 1.24173V0.621568H61.174V1.24173C63.0025 1.55976 64.5289 3.26122 65.7532 6.33022L67.7884 11.4187C68.17 12.3569 68.0428 12.6908 67.7884 13.4541L61.6828 31.2638C61.4761 31.8681 60.8401 31.7727 60.6652 31.2638L51.9997 6.33022C51.0298 3.54745 51.7612 1.63927 54.0349 1.24173V0.621568H39.7885V1.24173C41.6011 1.9732 42.7777 3.0227 43.3501 4.53335L58.6141 45.0187C58.789 45.4957 59.9656 45.4957 60.1405 45.0187L69.2989 19.5762C69.5851 18.797 70.0303 18.8129 70.3165 19.5762L79.9837 45.0187C80.1586 45.4957 81.3352 45.4957 81.5101 45.0187L95.7724 4.53335C96.2176 3.29303 97.1557 2.16402 98.8252 1.24173V0.621568H89.158ZM139.561 36.8771C135.522 41.091 130.848 44.001 124.806 44.001C114.375 44.001 107.856 36.082 108 24.1558C108.174 9.92397 113.501 2.56156 124.806 2.78418C132.772 2.84778 136.731 7.69775 139.052 14.4877H139.561L139.052 0.621568H138.543C136.572 4.53335 133.312 1.44845 127.557 0.621568C113.453 -1.38203 99.8428 7.34792 99.8428 24.1558C99.8428 38.7535 111.418 47.8173 124.79 47.0541C131.118 46.6883 136.143 42.872 140.054 36.8771H139.561Z" fill="#FFF5E5" stroke="#FFF5E5" stroke-width="1.1413" stroke-miterlimit="33.89"/>
<path fill-rule="evenodd" clip-rule="evenodd" d="M56.9866 58.458C58.0385 57.2312 59.2086 55.8668 58.4075 54.3052C58.0303 53.9657 57.5339 53.9642 57.044 53.9628C56.9142 53.9624 56.785 53.962 56.6585 53.9553C55.0049 54.4642 53.5739 55.4819 52.127 56.5473C49.9511 58.2212 48.3534 60.308 46.7723 62.3731C45.9502 63.4469 45.1326 64.5148 44.2406 65.5157C42.4916 66.2313 40.3769 66.5811 38.3735 66.1836C37.499 65.8656 36.5132 65.0864 36.4337 64.0846C36.0044 62.24 37.0061 60.793 38.2781 59.5527C39.4706 58.6145 41.0765 58.1851 42.6347 58.6304C43.2548 59.0279 43.8749 59.4732 43.7318 60.3159C43.5092 61.3972 42.3008 62.24 41.3786 62.6694C42.2213 62.9238 43.3025 62.0015 44.0657 61.2382C44.4314 60.7771 44.4314 60.0615 44.3996 59.5527C43.4933 58.201 41.5376 58.1374 39.9635 58.4714C37.8329 58.9166 35.591 60.3477 34.9391 62.574C34.7483 63.7666 34.796 65.0864 35.8613 65.8497C38.0078 67.5034 41.156 67.0105 43.5728 66.279L43.7318 66.438C43.4904 67.1517 43.0274 67.7754 42.5667 68.3958C42.3294 68.7154 42.0928 69.0341 41.8874 69.3639C39.884 71.6696 37.3718 73.2757 34.3349 72.5601C33.7148 72.3375 32.9675 71.7332 32.8244 71.0495C32.8977 70.6829 33.1848 70.6613 33.4767 70.6392C33.6281 70.6278 33.7807 70.6162 33.9056 70.5565C34.2872 70.3975 34.4303 70 34.4144 69.6342C34.2395 69.0618 33.5717 68.9982 32.9834 69.0459C32.6777 69.1091 32.5118 69.354 32.342 69.6046C32.2557 69.7321 32.1684 69.861 32.0612 69.9682C31.8227 70.8587 32.0771 71.7491 32.8244 72.3216C34.7642 73.546 37.6103 72.8782 39.6137 72.2262C42.7109 71.3143 44.8201 68.3865 46.6967 65.7815C46.8817 65.5247 47.0645 65.2711 47.2457 65.0228C50.5529 63.6076 53.6693 61.7153 56.4677 59.0756C56.6302 58.8736 56.8067 58.6678 56.9866 58.458ZM53.9142 60.5264C55.75 58.9776 57.8694 57.1895 57.8992 54.7187C57.7111 54.2889 57.2396 54.2901 56.8006 54.2913C56.7198 54.2916 56.6401 54.2918 56.5636 54.2893C55.3066 54.7637 54.2884 55.8041 53.265 56.8499C52.9161 57.2064 52.5667 57.5635 52.207 57.899C52.0552 58.0899 51.9023 58.2805 51.7492 58.4712C50.4744 60.059 49.1939 61.6541 48.5977 63.5281H48.8521C50.5534 62.892 52.1275 61.9857 53.5426 60.8407C53.6646 60.737 53.7887 60.6323 53.9142 60.5264Z" fill="#FFF5E5"/>
<path fill-rule="evenodd" clip-rule="evenodd" d="M126.152 69.1639C126.183 69.1555 126.211 69.1477 126.237 69.1412L127.955 68.2826C127.312 69.2094 126.219 69.6865 125.219 70.1235C125.155 70.1513 125.092 70.179 125.029 70.2067C124.457 70.2544 123.836 70.2225 123.598 69.6342C123.641 68.9528 123.97 68.393 124.297 67.8356C124.573 67.3654 124.848 66.8969 124.949 66.3585C124.663 66.0086 124.335 66.2242 124.006 66.4398C123.842 66.5475 123.677 66.6553 123.518 66.6924C122.772 67.1236 122.329 67.784 121.881 68.4504C121.47 69.0618 121.056 69.6782 120.402 70.1271L119.321 70.0476C119.554 69.5312 119.86 69.0462 120.165 68.5619C120.547 67.9577 120.927 67.3544 121.165 66.6924C120.992 66.3866 120.731 66.5588 120.519 66.6979C120.478 66.7251 120.438 66.7511 120.402 66.7719C119.914 67.1797 119.451 67.6529 118.987 68.1268C117.987 69.1497 116.983 70.1761 115.712 70.5565C115.091 70.6678 114.599 70.3975 114.122 70.1271C113.976 70.0248 113.88 69.8223 113.784 69.6207C113.597 69.2269 113.412 68.8368 112.865 69.2049C111.498 70.0317 110.003 70.7314 108.334 70.5565C107.978 70.4313 107.872 70.1546 107.767 69.8781C107.698 69.6979 107.629 69.5178 107.491 69.3798C107.069 69.4029 106.654 69.678 106.244 69.9495C105.526 70.425 104.825 70.8893 104.136 69.9681C104.105 69.5229 103.723 69.2049 103.294 69.4593C103.047 69.5828 102.806 69.7405 102.564 69.8989C101.934 70.3117 101.297 70.7289 100.527 70.5565C100.076 70.4368 100.019 70.109 99.962 69.7771C99.9204 69.536 99.8784 69.2926 99.6843 69.1254C99.0603 69.2316 98.5251 69.5872 97.994 69.9401C97.253 70.4324 96.5202 70.9193 95.5662 70.7155C95.3927 70.5735 95.3131 70.3923 95.2342 70.2128C95.154 70.0305 95.0747 69.8499 94.8984 69.7137C94.4646 69.7772 94.0202 70.0326 93.5753 70.2883C92.6829 70.8011 91.7881 71.3154 90.9711 70.2862C90.9544 70.2359 90.9396 70.1856 90.9249 70.1358C90.8562 69.9023 90.7908 69.6802 90.5418 69.5229C90.0672 69.646 89.6314 69.9008 89.1962 70.1552C88.4508 70.5912 87.7072 71.026 86.7735 70.795C86.3442 70.5406 86.5509 69.9363 86.694 69.6183C86.8207 69.2171 87.0501 68.8533 87.2804 68.4883C87.5703 68.0286 87.8615 67.567 87.9501 67.0263L87.6957 66.7719C85.899 67.3285 84.2454 68.9981 83.4186 70.7155C83.1494 70.972 82.787 70.9699 82.4234 70.9678C82.3361 70.9673 82.2487 70.9668 82.1625 70.9699L81.9876 70.8109C82.2057 70.396 82.4612 69.9882 82.7159 69.5815C83.2226 68.7726 83.7264 67.9683 83.9274 67.1218C82.6473 67.6187 81.4832 68.3967 80.3193 69.1745C79.2857 69.8652 78.2524 70.5558 77.1381 71.0494C76.3603 71.8946 75.8783 72.8557 75.3978 73.8137C75.0827 74.442 74.7682 75.0689 74.3715 75.6609C73.9422 75.8517 73.4175 76.0266 72.9405 75.8358C73.1259 75.134 73.5868 74.3882 74.0296 73.6717C74.1186 73.5277 74.2069 73.3849 74.292 73.2438C74.3343 73.0143 74.4615 72.7963 74.5855 72.5836C74.788 72.2363 74.9821 71.9034 74.7849 71.5583C74.61 71.4841 74.3909 71.4805 74.1712 71.477C73.7319 71.4699 73.2903 71.4628 73.1949 70.8904C73.1879 70.7917 73.2152 70.7118 73.2423 70.6326C73.2762 70.5332 73.3098 70.4349 73.2744 70.3021L73.1154 70.143C71.2022 70.4619 70.3975 72.0314 69.5944 73.5976C69.1962 74.3743 68.7983 75.1501 68.2659 75.7722C67.8684 75.8994 67.3119 75.8994 66.9144 75.7722C67.1439 75.2366 67.4434 74.7223 67.7437 74.2067C68.1299 73.5436 68.5173 72.8782 68.7588 72.1625C68.6192 72.0047 68.417 71.9257 68.2195 71.8485C67.8997 71.7234 67.5921 71.6031 67.5822 71.1607C67.2594 71.0111 66.9288 71.1423 66.5865 71.278C66.2376 71.4164 65.8766 71.5597 65.4993 71.4152C65.3963 71.3309 65.3016 71.1984 65.2046 71.0626C64.9721 70.7374 64.7266 70.3938 64.3227 70.6519C64.1262 70.7367 63.9335 70.8438 63.7395 70.9517C63.1329 71.289 62.5141 71.633 61.731 71.3198C61.4918 71.2523 61.3448 70.9978 61.2043 70.7544C60.9807 70.3671 60.7735 70.0082 60.2364 70.477C59.9077 70.5742 59.5656 70.7766 59.2182 70.9821C58.3724 71.4823 57.4956 72.0009 56.7066 71.0653C56.7403 70.4249 57.0688 69.9139 57.3961 69.4047C57.6864 68.953 57.9759 68.5027 58.0581 67.9645C57.9292 67.6481 57.6794 67.7031 57.4486 67.7539C57.3664 67.772 57.2865 67.7896 57.2154 67.7896C55.9954 68.3875 55.1966 69.4723 54.4096 70.541C54.171 70.865 53.9335 71.1876 53.6856 71.4947C53.2245 71.8286 52.5567 71.9081 52.0002 71.7491C52.1837 71.2692 52.505 70.8488 52.8264 70.4282C53.2293 69.901 53.6325 69.3735 53.7651 68.7278H53.2722C52.9303 68.9687 52.5922 69.2179 52.2544 69.4669C50.7859 70.5495 49.3221 71.6286 47.5641 72.0035C47.4733 71.987 47.3787 71.9743 47.283 71.9615C46.8257 71.9001 46.3435 71.8353 46.1331 71.3357C46.0845 71.2223 46.0671 71.0888 46.0497 70.9556C46.0159 70.6966 45.9823 70.4389 45.7197 70.3339C45.4651 70.4321 45.218 70.548 44.9711 70.6638C44.339 70.9602 43.7077 71.2562 42.9531 71.2562L43.0326 71.0017C44.2425 70.5307 45.3114 69.7196 46.3791 68.9094C47.4021 68.1332 48.4239 67.3578 49.5675 66.8832C49.6261 66.8769 49.6872 66.8697 49.7504 66.8623C50.4769 66.777 51.4692 66.6606 51.7617 67.3921C51.873 67.9486 51.3642 68.2667 50.919 68.3939C50.5782 68.4772 50.3997 68.2358 50.229 68.0048C50.0412 67.7509 49.8627 67.5095 49.488 67.726C48.5022 68.6324 47.8821 69.666 47.8026 70.9222C48.0898 71.3399 48.5483 71.1576 48.9233 71.0085C49.0051 70.976 49.0829 70.945 49.1541 70.9222C49.5634 70.6372 49.9894 70.3493 50.4239 70.0557C53.2131 68.1707 56.3494 66.0512 57.6288 62.9555C58 62.3325 58.3711 61.842 58.7883 61.2907C58.8716 61.1807 58.9567 61.0683 59.0439 60.952C60.6021 58.8052 62.5896 56.8494 65.0859 56.2451C65.6583 56.2928 65.9286 56.7221 66.0081 57.2469C64.9905 60.8406 61.2381 63.3531 58.1217 64.8796C57.4857 65.4839 56.8179 66.2154 56.6112 67.074C56.9963 67.4057 57.4246 67.1903 57.8526 66.9751C58.0606 66.8704 58.2686 66.7658 58.4715 66.7242C58.51 66.7168 58.5508 66.7085 58.5934 66.6997C59.009 66.6146 59.5982 66.4938 59.8866 66.8832C60.0354 67.6867 59.6149 68.3232 59.1926 68.9624C58.9379 69.3478 58.6826 69.7343 58.551 70.1589C59.0705 70.5939 59.6266 70.2211 60.1498 69.8704C60.3152 69.7595 60.4773 69.6508 60.6339 69.5706C60.9147 69.3271 61.1973 69.0627 61.4841 68.7944C63.0328 67.3454 64.7018 65.784 66.8349 66.8037C67.0548 66.7662 67.2602 66.6997 67.4645 66.6336C67.866 66.5036 68.2635 66.3749 68.7588 66.4698V66.8832L66.9144 69.9045C67.3119 70.1589 67.8684 69.8091 68.2659 69.5547L72.6225 66.12C73.0759 65.5102 73.5292 64.871 73.9903 64.221C76.3428 60.9041 78.8957 57.3046 82.6713 55.8953C82.7215 55.8881 82.7742 55.88 82.8288 55.8717C83.381 55.7872 84.1324 55.6722 84.4362 56.1497C84.5007 57.7098 83.4152 58.8413 82.3751 59.9256C82.1324 60.1786 81.8922 60.429 81.6696 60.6816C80.0404 62.3384 78.0457 63.3703 76.0814 64.3865C75.7645 64.5504 75.4484 64.714 75.1347 64.8796C73.9104 66.2949 73.0359 67.8373 72.2727 69.4116L72.4476 69.5706C74.1571 68.9295 75.6977 67.9007 77.2422 66.8694C77.6514 66.5962 78.0608 66.3228 78.4737 66.0563C79.183 65.182 79.8603 64.2435 80.544 63.296C82.4963 60.5903 84.5014 57.8115 87.4572 56.2451C87.7044 56.2136 87.9796 56.1148 88.2623 56.0133C88.9795 55.7557 89.7448 55.4809 90.2238 56.2451C90.2081 57.9719 88.8442 59.2803 87.6773 60.3997L87.6321 60.4431C85.7183 62.3005 83.5895 63.6016 81.4487 64.91C81.1885 65.0691 80.9281 65.2282 80.6679 65.3885C80.569 65.5326 80.4698 65.6766 80.3706 65.8205C79.5285 67.0422 78.6879 68.2618 78.0762 69.5706L78.3306 69.825C80.7908 68.8933 82.9577 67.0952 85.051 65.3581C85.2442 65.1979 85.4367 65.0381 85.6287 64.8796C85.8611 64.5429 86.0934 64.203 86.3267 63.8614C88.1204 61.2356 89.979 58.5148 92.4975 56.4041C92.6805 56.3298 92.8892 56.2261 93.1124 56.1153C94.1305 55.6096 95.4507 54.9539 96.0114 56.2451C95.121 60.2046 90.7644 62.6057 87.5526 64.3708C87.4295 64.565 87.2838 64.7521 87.1374 64.9401C86.7922 65.3835 86.443 65.832 86.376 66.3903L86.5509 66.5493C86.9018 66.5132 87.2593 66.3632 87.6176 66.2129C88.3634 65.9001 89.1123 65.5859 89.8104 66.2949C89.8614 66.9577 89.5264 67.4889 89.201 68.0048C88.9174 68.4543 88.6412 68.8922 88.6338 69.3957L88.8882 69.5547C90.0833 69.3896 91.0618 68.5253 92.0275 67.6723C93.3873 66.4711 94.7217 65.2924 96.5997 66.12C96.8751 66.2183 97.0592 66.0916 97.2423 65.9656C97.3553 65.8878 97.468 65.8103 97.6014 65.786L98.6031 65.8655C98.469 66.4839 98.1465 67.0185 97.8251 67.551C97.4606 68.1552 97.0976 68.7568 97.0131 69.4752H97.7763C97.9062 69.395 98.0383 69.3144 98.172 69.2329C99.5763 68.3762 101.145 67.4192 101.958 65.8655C102.145 65.6685 102.419 65.6879 102.698 65.7076C102.847 65.7181 102.996 65.7286 103.135 65.7065C103.371 66.0024 103.18 66.286 102.981 66.5801C102.86 66.7603 102.736 66.9444 102.705 67.1377C102.642 67.2346 102.578 67.3308 102.513 67.4269C102.155 67.9616 101.798 68.4943 101.704 69.1412C101.896 69.4243 102.137 69.2962 102.363 69.176C102.454 69.1274 102.543 69.0801 102.626 69.0617C103.977 68.3303 105.249 67.0582 105.981 65.7065C106.227 65.5029 106.575 65.5232 106.921 65.5435C107.089 65.5533 107.256 65.5631 107.412 65.5475V65.9609C107.231 66.3331 107.005 66.6845 106.78 67.0346C106.352 67.7019 105.926 68.3645 105.822 69.1571C106.529 69.1679 107.142 68.7379 107.759 68.3055C108.058 68.0964 108.357 67.8867 108.668 67.726C108.84 67.5957 109.012 67.4665 109.185 67.3373C110.128 66.6312 111.07 65.9258 111.943 65.0387C111.984 64.9456 112.024 64.845 112.065 64.7415C112.261 64.2432 112.485 63.6756 113.024 63.5439C113.311 63.5121 113.597 63.687 113.692 63.9573C113.599 64.3197 113.295 64.6115 112.991 64.9026C112.775 65.1096 112.559 65.3162 112.42 65.5475C112.436 65.8944 112.426 66.2186 112.416 66.5318C112.396 67.1662 112.377 67.7551 112.579 68.3939C113.469 68.3146 113.954 67.6545 114.458 66.9679C114.863 66.4152 115.282 65.8454 115.934 65.5475C116.729 65.0705 117.938 64.6252 118.796 65.2931C118.809 65.4025 118.833 65.5098 118.856 65.6154C118.921 65.9086 118.983 66.1892 118.796 66.4698C118.033 67.567 116.856 67.9645 115.68 68.2349C115.314 68.5529 115.33 69.0299 115.346 69.4911C115.493 69.8535 115.902 69.7627 116.198 69.6969C116.252 69.6847 116.303 69.6734 116.348 69.666C117.107 69.1466 117.802 68.4557 118.497 67.7641C119.547 66.7193 120.599 65.6728 121.881 65.2136C122.485 65.1977 122.93 65.5316 123.391 65.8814C123.688 65.8238 124.005 65.7018 124.329 65.5773C125.165 65.2553 126.047 64.9161 126.746 65.627C126.72 66.32 126.368 66.884 126.016 67.448C125.713 67.9323 125.411 68.4165 125.315 68.9822C125.458 69.3535 125.883 69.2375 126.152 69.1639ZM116.968 67.017C117.438 66.6334 118.039 66.1423 117.763 65.5316C116.984 65.627 116.157 66.5493 116.268 67.2808C116.424 67.3329 116.54 67.2688 116.655 67.205C116.715 67.1715 116.775 67.1382 116.84 67.1218C116.881 67.0878 116.924 67.0528 116.968 67.017ZM63.6647 70.186C63.7555 70.1691 63.8446 70.1525 63.9252 70.143C64.8951 69.6501 66.0876 68.6642 66.0876 67.4716C65.9504 67.0101 65.6176 67.0867 65.2809 67.1642C65.1884 67.1855 65.0955 67.2069 65.0064 67.2172C64.0206 67.9327 62.844 68.9504 63.0825 70.2226C63.2276 70.2672 63.4509 70.2257 63.6647 70.186ZM69.2166 70.2354C69.2773 70.2859 69.3385 70.3369 69.3789 70.3975C70.0116 70.4218 70.2998 69.6919 70.5285 69.1127C70.5987 68.935 70.6632 68.7715 70.7304 68.6483C70.0944 68.855 69.522 69.2526 69.045 69.825C68.9582 70.0203 69.0861 70.1268 69.2166 70.2354ZM74.7728 69.9411C74.9621 70.2634 75.1479 70.5799 75.5799 70.477C76.359 69.7455 76.836 68.6324 77.1063 67.7101H76.8519C76.683 67.8121 76.5071 67.9122 76.3291 68.0134C75.6192 68.4172 74.8769 68.8395 74.4192 69.4752C74.5652 69.5875 74.6695 69.7651 74.7728 69.9411ZM92.8632 69.7296H93.0222C94.2306 69.2685 95.9478 68.3144 95.9637 66.7878C95.7729 66.5016 95.4867 66.4062 95.1369 66.4539C93.9921 67.1695 92.736 68.378 92.8632 69.7296ZM109.339 69.3187C109.443 69.557 109.54 69.778 109.797 69.8091C110.639 68.9822 111.307 67.8373 111.148 66.6129C110.325 67.0093 109.604 67.6542 108.887 68.2953C108.857 68.3229 108.826 68.3505 108.795 68.378V68.7119C109.112 68.8013 109.23 69.0694 109.339 69.3187ZM90.3472 60.2646C91.2694 58.9253 92.1916 57.5861 93.453 56.3882C93.8823 56.0701 94.5501 55.5931 95.043 56.1337C94.9121 57.7493 93.7554 58.9519 92.5972 60.1561C92.49 60.2675 92.3828 60.379 92.2764 60.4908C91.1475 61.4766 90.1617 62.2876 88.842 62.8442C88.6671 62.7329 88.8102 62.4148 88.9215 62.2558C89.425 61.6039 89.8861 60.9342 90.3472 60.2646ZM82.2118 63.1781C83.8971 60.6498 85.98 57.8352 88.5876 56.1337C88.6414 56.1367 88.6956 56.1363 88.7494 56.136C88.9822 56.1344 89.2058 56.1328 89.3349 56.4041C89.2796 57.7322 88.2845 58.7137 87.3148 59.6702C86.8912 60.088 86.4725 60.501 86.139 60.936C85.6592 61.2308 85.2068 61.6014 84.7533 61.9727C83.9596 62.6226 83.163 63.2749 82.2118 63.5279V63.1781ZM78.3459 60.3853C79.6239 58.7433 80.9702 57.0134 82.8 56.2291C83.0544 56.1814 83.2293 56.2769 83.4042 56.4836C83.1829 58.2543 81.7636 59.4925 80.3815 60.6982C79.9763 61.0517 79.5743 61.4024 79.2066 61.7629C79.0545 61.868 78.9038 61.9751 78.7534 62.0819C78.0396 62.589 77.3338 63.0903 76.5195 63.353C76.4775 62.9013 76.7825 62.4912 77.0906 62.0769C77.2489 61.8641 77.4079 61.6502 77.5212 61.4289C77.7957 61.0922 78.0692 60.7408 78.3459 60.3853ZM61.9794 58.9379C62.7343 57.9503 63.5133 56.9313 64.7694 56.738L65.1033 57.1673C64.4037 60.125 61.7643 62.3671 59.0613 63.5438H58.9023C59.4111 62.1922 60.3492 60.9519 61.2555 59.8388C61.504 59.5598 61.7405 59.2504 61.9794 58.9379Z" fill="#FFF5E5"/>
</g>
<defs>
<clipPath id="clip0_58_88">
<rect width="159" height="76" fill="white" transform="translate(0.5 0.133301)"/>
</clipPath>
</defs>
</svg>
