<svg width="265" height="77" viewBox="0 0 265 77" fill="none" xmlns="http://www.w3.org/2000/svg">
<g clip-path="url(#clip0_58_68)">
<path fill-rule="evenodd" clip-rule="evenodd" d="M154.886 24.245C146.372 28.045 139.074 28.327 139.074 28.327V11.227H145.819L141.839 5.44116L134.43 5.50245L132.833 7.7702L131.236 5.50245L123.828 5.44116L119.847 11.227H126.592V28.327C126.592 28.327 119.294 28.0573 110.78 24.245L105.805 31.085C105.805 31.085 107.07 31.6979 112.439 33.5612L114.036 31.1341C114.036 31.1341 122.231 34.076 132.833 34.0025C143.424 34.076 151.63 31.1341 151.63 31.1341L153.228 33.5612C158.584 31.6857 159.862 31.085 159.862 31.085L154.886 24.245ZM132.231 32.5805C123.005 32.8502 113.606 29.6018 113.606 29.6018L112.009 31.9186C108.913 30.987 107.807 30.3741 107.807 30.3741L111.124 25.8018C119.356 29.3321 127.71 29.6631 127.71 29.6631V9.97664H122.022L124.393 6.66697H130.524L132.231 9.14309V32.5805ZM152.073 29.6018C152.073 29.6018 142.674 32.8502 133.448 32.5805V9.14309L135.155 6.66697H141.286L143.657 9.97664H137.969V29.6631C137.969 29.6631 146.311 29.3321 154.554 25.8018L157.872 30.3741C157.872 30.3741 156.766 30.9747 153.67 31.9186L152.073 29.6018Z" fill="#FFF5E5"/>
<path fill-rule="evenodd" clip-rule="evenodd" d="M258.381 50.9431C258.381 50.9431 255.801 52.3405 251.636 57.2683H249.129C249.129 57.2683 248.466 57.4521 248.466 56.6063V50.2444C248.466 50.2444 248.355 49.656 249.019 49.656H250.899C250.899 49.656 251.415 49.5824 251.82 50.4283L252.078 50.9799C252.078 50.9799 252.225 51.605 252.999 51.4212C252.999 51.4212 253.737 51.5315 253.515 50.6857C253.294 49.8399 253.479 50.5753 253.479 50.5753L252.41 47.3024C252.41 47.3024 252.336 46.8611 251.783 46.8611L251.267 46.8244C251.267 46.8244 250.714 46.7876 250.825 47.4495C250.825 47.4495 250.972 48.1482 250.198 48.1482H249.093C249.093 48.1482 248.503 48.2953 248.503 47.2289V45.3534C248.503 45.3534 248.392 44.8018 249.203 44.8018H253.036C253.036 44.8018 253.921 44.5076 254.474 45.7579L254.769 46.3831C254.769 46.3831 254.769 47.0082 255.653 46.8244C255.653 46.8244 256.611 46.9347 256.317 46.0521L255.616 43.9192C255.616 43.9192 255.579 43.4412 254.953 43.4412H244.006C244.006 43.4412 243.38 43.2941 243.38 43.9928V44.3605C243.38 44.3605 243.269 44.6915 244.006 44.8753C244.006 44.8753 244.817 44.9121 244.817 45.9786L244.743 56.3857C244.743 56.3857 244.743 57.3418 244.117 57.5257C244.117 57.5257 243.417 57.305 243.38 58.1141C243.38 58.1141 243.085 58.776 244.08 58.8128H249.351C249.351 58.8128 250.272 58.776 249.793 59.4012C249.793 59.4012 247.95 62.4534 244.338 64.5863C244.338 64.5863 242.016 66.0573 237.925 66.0941H25.4188C25.4188 66.0941 20.9223 66.5353 18.5634 64.1818L14.9883 60.247C14.9883 60.247 14.6934 59.7689 15.2094 59.6218C15.2094 59.6218 19.5954 58.776 21.1434 55.8341C22.6914 52.8921 22.8757 50.7592 22.8757 48.6263V38.7708C22.8757 38.7708 22.7283 38.0721 23.6128 38.0353H24.4974C24.4974 38.0353 24.9397 38.2192 24.9397 37.3366V36.9321C24.9397 36.9321 25.2346 36.3437 24.3868 36.3437H16.7574C16.7574 36.3437 16.2046 36.1599 16.1677 36.8586V37.3366C16.1677 37.3366 15.9466 37.9986 16.8311 37.9986H17.4577C17.4577 37.9986 18.4528 37.8515 18.416 39.1018V51.0166C18.416 51.0166 18.8951 57.2315 13.3297 58.0405C13.3297 58.0405 9.68084 52.7082 7.3957 51.4212C7.3957 51.4212 4.18913 48.9941 1.68285 51.2373C1.68285 51.2373 -0.786584 54.0321 2.97284 57.2683C2.97284 57.2683 6.76913 60.2837 12.8506 60.0999C12.8506 60.0999 16.094 64.9908 16.7943 65.7999C16.7943 65.7999 19.19 68.6683 21.1803 69.4773C23.1706 70.2863 23.5023 70.8011 30.3946 70.8011H233.772C233.772 70.8011 239.006 71.1321 241.991 69.367C241.991 69.367 244.424 68.227 247.078 65.2115L252.422 58.8128C252.422 58.8128 257.914 58.9599 260.862 57.0476C260.862 57.0476 263.885 55.5031 264.106 53.0392C264.315 50.5754 261.919 49.2515 258.381 50.9431ZM7.06399 57.5992C4.70513 56.5328 5.36856 54.9515 5.36856 54.9515C5.88456 53.8115 7.46942 54.5837 7.46942 54.5837C9.42284 55.4295 11.4868 58.5186 11.4868 58.5186C8.79627 58.8495 7.06399 57.5992 7.06399 57.5992ZM258.344 56.3857C256.759 57.4521 253.405 57.305 253.405 57.305C253.958 56.3489 256.059 54.3631 256.059 54.3631C257.754 52.8921 258.897 53.5908 258.897 53.5908C260.518 55.0618 258.344 56.3857 258.344 56.3857Z" fill="#FFF5E5"/>
<path fill-rule="evenodd" clip-rule="evenodd" d="M40.2354 57.9302C40.2354 57.9302 40.2722 57.5257 39.6457 57.3786C39.6457 57.3786 38.9454 57.3418 38.54 56.3121L34.3014 43.8824C34.3014 43.8824 34.3382 43.2941 33.6625 43.2941H30.3085C30.3085 43.2941 29.8417 43.2941 29.5468 43.9928L24.8291 56.5328C24.8291 56.5328 24.866 57.3786 23.318 57.3418C23.318 57.3418 22.6914 57.3786 22.802 58.0037V58.445C22.802 58.445 22.7283 58.9231 23.4531 58.9231H27.5074C27.5074 58.9231 28.0357 58.9599 28.0725 58.5186V58.0773C28.0725 58.0773 28.22 57.5257 27.5934 57.4153C27.5934 57.4153 26.4877 57.2683 26.8562 56.2754L27.446 54.9147H34.0802L34.7068 56.496C34.7068 56.496 34.9648 57.2682 34.4488 57.3786C34.4488 57.3786 33.6748 57.4153 33.6748 57.8199V58.3715C33.6748 58.3715 33.4537 58.9231 34.4365 58.9231H39.6703C39.6703 58.9231 40.2723 59.107 40.2723 58.445L40.2354 57.9302ZM33.0482 53.2231H28.8465C27.7777 53.2231 28.3305 52.2302 28.3305 52.2302L30.542 46.4934C30.9842 45.6108 31.4265 46.4934 31.4265 46.4934L33.2694 52.1199C33.7117 53.5173 33.0482 53.2231 33.0482 53.2231Z" fill="#FFF5E5"/>
<path fill-rule="evenodd" clip-rule="evenodd" d="M138.25 57.2316H135.744C135.744 57.2316 135.08 57.4155 135.08 56.5697V50.2077C135.08 50.2077 134.97 49.6193 135.633 49.6193H137.513C137.513 49.6193 138.029 49.5458 138.434 50.3916L138.692 50.9432C138.692 50.9432 138.84 51.5684 139.614 51.3845C139.614 51.3845 140.351 51.4948 140.13 50.649C139.909 49.8032 140.093 50.5387 140.093 50.5387L139.024 47.2658C139.024 47.2658 138.95 46.8245 138.397 46.8245L137.881 46.7877C137.881 46.7877 137.329 46.751 137.439 47.4129C137.439 47.4129 137.587 48.1116 136.813 48.1116H135.707C135.707 48.1116 135.117 48.2587 135.117 47.1923V45.3168C135.117 45.3168 135.007 44.7652 135.817 44.7652H139.651C139.651 44.7652 140.535 44.471 141.088 45.7213L141.383 46.3464C141.383 46.3464 141.383 46.9716 142.267 46.7877C142.267 46.7877 143.226 46.8981 142.931 46.0155L142.231 43.8826C142.231 43.8826 142.194 43.4045 141.567 43.4045H130.621C130.621 43.4045 129.994 43.2574 129.994 43.9561V44.3239C129.994 44.3239 129.883 44.6548 130.621 44.8387C130.621 44.8387 131.431 44.8755 131.431 45.9419L131.358 56.349C131.358 56.349 131.358 57.3051 130.731 57.489C130.731 57.489 130.031 57.2684 129.994 58.0774C129.994 58.0774 129.699 58.7393 130.694 58.7761H135.965H141.751C141.751 58.7761 142.157 58.9232 142.415 58.4452L143.336 56.2387C143.336 56.2387 143.668 55.54 142.968 55.54H142.267C142.267 55.54 141.899 55.4297 141.715 55.871L141.309 56.5697C141.309 56.5697 141.235 57.1948 140.167 57.2316H138.25Z" fill="#FFF5E5"/>
<path fill-rule="evenodd" clip-rule="evenodd" d="M50.1875 57.2316H47.6812C47.6812 57.2316 47.0177 57.4155 47.0177 56.5697V50.2077C47.0177 50.2077 46.9072 49.6193 47.5706 49.6193H49.4503C49.4503 49.6193 49.9663 49.5458 50.3717 50.3916L50.6297 50.9432C50.6297 50.9432 50.7772 51.5684 51.5512 51.3845C51.5512 51.3845 52.2883 51.4948 52.0672 50.649C51.846 49.8032 52.0303 50.5387 52.0303 50.5387L50.9614 47.2658C50.9614 47.2658 50.8877 46.8245 50.3349 46.8245L49.8189 46.7877C49.8189 46.7877 49.266 46.751 49.3766 47.4129C49.3766 47.4129 49.524 48.1116 48.75 48.1116H47.6443C47.6443 48.1116 47.0546 48.2587 47.0546 47.1923V45.3168C47.0546 45.3168 46.944 44.7652 47.7549 44.7652H51.588C51.588 44.7652 52.4726 44.471 53.0254 45.7213L53.3203 46.3464C53.3203 46.3464 53.3203 46.9716 54.2049 46.7877C54.2049 46.7877 55.1632 46.8981 54.8683 46.0155L54.168 43.8826C54.168 43.8826 54.1312 43.4045 53.5046 43.4045H42.558C42.558 43.4045 41.9314 43.2574 41.9314 43.9561V44.3239C41.9314 44.3239 41.8209 44.6548 42.558 44.8387C42.558 44.8387 43.3689 44.8755 43.3689 45.9419L43.2952 56.349C43.2952 56.349 43.2952 57.3051 42.6686 57.489C42.6686 57.489 41.9683 57.2684 41.9314 58.0774C41.9314 58.0774 41.6366 58.7393 42.6317 58.7761H47.9023H53.6889C53.6889 58.7761 54.0943 58.9232 54.3523 58.4452L55.2737 56.2387C55.2737 56.2387 55.6054 55.54 54.9052 55.54H54.2049C54.2049 55.54 53.8363 55.4297 53.652 55.871L53.2466 56.5697C53.2466 56.5697 53.1729 57.1948 52.104 57.2316H50.1875Z" fill="#FFF5E5"/>
<path fill-rule="evenodd" clip-rule="evenodd" d="M81.6132 57.3542H79.1069C79.1069 57.3542 78.4435 57.538 78.4435 56.6922V50.3303C78.4435 50.3303 78.3329 49.7419 78.9964 49.7419H80.8761C80.8761 49.7419 81.3921 49.6684 81.7975 50.5142L82.0555 51.0658C82.0555 51.0658 82.2029 51.691 82.9769 51.5071C82.9769 51.5071 83.7141 51.6174 83.4929 50.7716C83.2718 49.9258 83.4561 50.6613 83.4561 50.6613L82.3872 47.3884C82.3872 47.3884 82.3135 46.9471 81.7607 46.9471L81.2447 46.9103C81.2447 46.9103 80.6918 46.8735 80.8024 47.5355C80.8024 47.5355 80.9498 48.2342 80.1758 48.2342H79.0701C79.0701 48.2342 78.4804 48.3813 78.4804 47.3148V45.4393C78.4804 45.4393 78.3698 44.8877 79.1807 44.8877H83.0138C83.0138 44.8877 83.8984 44.5935 84.4512 45.8438L84.7461 46.469C84.7461 46.469 84.7461 47.0942 85.6307 46.9103C85.6307 46.9103 86.5889 47.0206 86.2941 46.138L85.5938 44.0051C85.5938 44.0051 85.5569 43.5271 84.9304 43.5271H73.9838C73.9838 43.5271 73.3572 43.38 73.3572 44.0787V44.4464C73.3572 44.4464 73.2467 44.7774 73.9838 44.9613C73.9838 44.9613 74.7947 44.998 74.7947 46.0645L74.7209 56.4716C74.7209 56.4716 74.7209 57.4277 74.0944 57.6116C74.0944 57.6116 73.3941 57.3909 73.3572 58.2C73.3572 58.2 73.0624 58.8619 74.0575 58.8987H79.3281H85.1147C85.1147 58.8987 85.5201 59.0458 85.7781 58.5677L86.6995 56.3613C86.6995 56.3613 87.0312 55.6626 86.3309 55.6626H85.6307C85.6307 55.6626 85.2621 55.5522 85.0778 55.9935L84.6724 56.6922C84.6724 56.6922 84.5987 57.3174 83.5298 57.3542H81.6132Z" fill="#FFF5E5"/>
<path fill-rule="evenodd" clip-rule="evenodd" d="M63.9714 43.0734C63.9714 43.0734 56.858 43.0489 56.342 50.9431C55.8137 58.9231 63.6397 59.0334 63.6397 59.0334C63.6397 59.0334 66.2934 59.3644 69.7211 57.0476C69.7211 57.0476 70.2371 56.6799 70.274 55.9444L70.4214 54.4734C70.4214 54.4734 70.0897 53.2599 71.4166 53.2599C71.4166 53.2599 71.8957 53.2231 71.9326 52.6715V52.4141C71.9326 52.4141 71.9694 51.936 71.1217 51.936H65.5194C65.5194 51.936 64.8929 51.8257 64.8929 52.3405V52.7083C64.8929 52.7083 64.856 53.2231 65.5194 53.2231C65.5194 53.2231 66.8831 53.1128 66.8831 54.4734C66.8831 54.4734 67.178 57.7096 63.7503 57.7096C60.3226 57.7096 60.3963 54.5102 60.2857 50.3915C60.1751 46.3095 61.4651 44.3237 64.2663 44.3605C67.0674 44.3973 68.0257 46.6405 68.3206 47.1554C68.3206 47.1554 68.5048 47.6702 69.1683 47.5966L69.8686 47.3024C69.8686 47.3024 70.3109 47.4128 70.1266 46.7508L69.1683 43.7354C69.1683 43.7354 69.156 43.1838 68.64 43.2941C68.64 43.2941 68.3206 43.2573 68.1363 43.625C68.1363 43.625 68.2591 44.4708 66.8831 43.8825C66.8708 43.8825 65.7651 43.0734 63.9714 43.0734Z" fill="#FFF5E5"/>
<path fill-rule="evenodd" clip-rule="evenodd" d="M105.73 58.0039C105.73 58.0039 105.804 57.5994 105.103 57.5626L104.796 57.5381C104.796 57.5381 103.899 57.6239 103.089 56.349C103.089 56.349 101.037 52.4632 99.7469 51.5806C99.7469 51.5806 99.3415 51.2742 99.7469 51.1271C99.7469 51.1271 101.479 50.7961 102.511 49.8032C102.511 49.8032 103.691 49.3251 103.654 46.9348C103.654 46.9348 103.912 43.4413 98.8132 43.4045H89.4515H89.4392C89.4392 43.4045 88.8126 43.2574 88.8126 43.9561V44.3239C88.8126 44.3239 88.7021 44.6548 89.4392 44.8387C89.4392 44.8387 90.2501 44.8755 90.2501 45.9419L90.1764 56.349C90.1764 56.349 90.2623 57.4645 89.4023 57.489C89.4023 57.489 88.6529 57.4032 88.7144 58.1264C88.7144 58.1264 88.4686 58.8865 89.4638 58.9232H94.6238C94.6238 58.9232 95.3855 59.0581 95.3978 58.5555L95.3855 57.9671C95.3855 57.9671 95.4224 57.5013 94.6975 57.5013C94.4641 57.44 93.9726 57.2194 93.9112 56.5819V52.2793C93.9112 52.2793 93.8006 51.691 94.4641 51.691V51.6787L95.5084 51.691C95.5084 51.691 96.8229 51.6052 97.4986 52.9045L99.7715 57.1703C99.7715 57.1703 100.509 58.8987 102.388 58.9355H105.337C105.337 58.9355 105.779 59.0458 105.779 58.4206L105.73 58.0039ZM97.2038 50.2077L94.5132 50.171H94.4395V50.1832C94.2798 50.1832 93.9235 50.0852 93.9235 49.2516V45.3168C93.9235 45.3168 93.8129 44.7774 94.6115 44.7652L97.6952 44.8387C97.6952 44.8387 100.177 44.851 100.201 47.1923C100.226 49.4355 99.0098 50.2077 97.2038 50.2077Z" fill="#FFF5E5"/>
<path fill-rule="evenodd" clip-rule="evenodd" d="M242.52 58.0038C242.52 58.0038 242.593 57.5992 241.893 57.5625L241.586 57.5379C241.586 57.5379 240.689 57.6237 239.866 56.3489C239.866 56.3489 237.814 52.4631 236.524 51.5805C236.524 51.5805 236.119 51.2741 236.524 51.127C236.524 51.127 238.257 50.796 239.289 49.8031C239.289 49.8031 240.468 49.325 240.431 46.9347C240.431 46.9347 240.689 43.4412 235.591 43.4044H226.229H226.217C226.217 43.4044 225.59 43.2573 225.59 43.956V44.3237C225.59 44.3237 225.479 44.6547 226.217 44.8386C226.217 44.8386 227.027 44.8754 227.027 45.9418L226.954 56.3489C226.954 56.3489 227.04 57.4644 226.18 57.4889C226.18 57.4889 225.43 57.4031 225.492 58.1263C225.492 58.1263 225.246 58.8863 226.241 58.9231H231.401C231.401 58.9231 232.163 59.0579 232.175 58.5554L232.163 57.967C232.163 57.967 232.2 57.5012 231.475 57.5012C231.241 57.4399 230.75 57.2192 230.689 56.5818V52.2792C230.689 52.2792 230.578 51.6908 231.241 51.6908V51.6786L232.286 51.6908C232.286 51.6908 233.6 51.605 234.276 52.9044L236.549 57.1702C236.549 57.1702 237.286 58.8986 239.166 58.9354H242.114C242.114 58.9354 242.557 59.0457 242.557 58.4205L242.52 58.0038ZM233.993 50.2076L231.303 50.1709H231.229V50.1831C231.069 50.1831 230.713 50.085 230.713 49.2515V45.3166C230.713 45.3166 230.603 44.7773 231.401 44.765L234.485 44.8386C234.485 44.8386 236.967 44.8508 236.991 47.1921C237.016 49.4354 235.799 50.2076 233.993 50.2076Z" fill="#FFF5E5"/>
<path fill-rule="evenodd" clip-rule="evenodd" d="M113.421 52.3405C113.765 52.3405 114.048 52.0586 114.048 51.7154V50.3915C114.048 50.0483 113.765 49.7663 113.421 49.7663H107.414C107.07 49.7663 106.787 50.0483 106.787 50.3915V51.7154C106.787 52.0586 107.07 52.3405 107.414 52.3405H113.421Z" fill="#FFF5E5"/>
<path fill-rule="evenodd" clip-rule="evenodd" d="M116.836 43.2942C116.836 43.2942 116.381 43.331 116.381 43.7477V44.2135C116.381 44.2135 116.307 44.7774 117.032 44.6548C117.032 44.6548 118.224 44.5445 118.224 45.7581V56.4471C118.224 56.4471 118.334 57.2439 117.401 57.2684C117.401 57.2684 116.786 57.2439 116.762 57.7097V58.3348C116.762 58.3348 116.762 58.8864 117.266 58.9232H127.217C127.217 58.9232 127.549 59.0826 127.93 58.3103L128.925 56.1284C128.925 56.1284 129.17 55.5277 128.593 55.5277H127.88C127.88 55.5277 127.5 55.5277 127.352 55.8587L126.996 56.5452C126.996 56.5452 126.627 57.391 125.694 57.2561H122.733C122.733 57.2561 121.86 57.3664 121.848 56.5452V45.709C121.848 45.709 121.738 44.7161 122.598 44.6916H123.015C123.015 44.6916 123.421 44.7529 123.396 44.1645V43.7723C123.396 43.7723 123.482 43.2942 122.868 43.2942H116.836Z" fill="#FFF5E5"/>
<path fill-rule="evenodd" clip-rule="evenodd" d="M199.679 43.2941C199.679 43.2941 199.225 43.3308 199.225 43.7476V44.2134C199.225 44.2134 199.151 44.7773 199.876 44.6547C199.876 44.6547 201.068 44.5444 201.068 45.7579V56.447C201.068 56.447 201.178 57.2437 200.245 57.2683C200.245 57.2683 199.63 57.2437 199.606 57.7095V58.3347C199.606 58.3347 199.606 58.8863 200.097 58.9231H210.049C210.049 58.9231 210.38 59.0825 210.761 58.3102L211.756 56.1282C211.756 56.1282 212.002 55.5276 211.425 55.5276H210.712C210.712 55.5276 210.319 55.5276 210.184 55.8586L209.827 56.545C209.827 56.545 209.459 57.3908 208.525 57.256H205.564C205.564 57.256 204.692 57.3663 204.68 56.545V45.7089C204.68 45.7089 204.569 44.716 205.429 44.6915H205.847C205.847 44.6915 206.252 44.7528 206.24 44.1644V43.7721C206.24 43.7721 206.326 43.2941 205.712 43.2941H199.679Z" fill="#FFF5E5"/>
<path fill-rule="evenodd" clip-rule="evenodd" d="M154.726 36.1966C154.726 36.1966 144.885 35.6818 144.774 47.7805C144.774 47.7805 144.332 58.3347 154.505 58.8495C154.505 58.8495 156.863 58.9967 158.964 57.6728C158.964 57.6728 159.628 57.3786 159.775 57.9302C159.775 57.9302 159.886 58.6657 160.66 58.5921C160.66 58.5921 161.434 58.5554 161.507 57.8566L162.871 53.7012C162.871 53.7012 163.129 53.0025 162.539 53.0025L162.023 52.9657C162.023 52.9657 161.618 52.9657 161.397 53.4805C161.397 53.4805 160.66 55.1721 159.775 55.7973C159.775 55.7973 158.387 57.4399 155.242 57.3418C155.242 57.3418 149.345 57.4889 149.566 47.7805C149.566 47.7805 149.05 37.7412 155.426 37.7779C155.426 37.7779 158.485 37.5573 160.697 40.8302C160.697 40.8302 160.955 41.4554 161.618 41.4554H162.245C162.245 41.4554 162.761 41.4921 162.576 40.6463L161.581 36.8218C161.581 36.8218 161.471 36.3437 161.065 36.3437H160.328C160.328 36.3437 159.996 36.4541 160.07 36.8586C160.07 36.8586 160.181 37.3367 159.923 37.4837C159.923 37.4837 159.738 37.7779 159.222 37.4837C159.222 37.4837 157.416 36.2702 154.726 36.1966Z" fill="#FFF5E5"/>
<path fill-rule="evenodd" clip-rule="evenodd" d="M168.682 54.0198C168.682 54.0443 168.694 54.0688 168.694 54.0688C168.694 54.0688 168.682 54.0565 168.682 54.0198Z" fill="#FFF5E5"/>
<path fill-rule="evenodd" clip-rule="evenodd" d="M180.12 50.9064C179.936 43.1102 172.343 43.1348 172.343 43.1348C172.343 43.1348 164.751 43.1102 164.566 50.9064C164.566 50.9064 164.456 58.5922 172.343 58.9232C180.231 58.5922 180.12 50.9064 180.12 50.9064ZM175.992 54.1793C175.292 58.0038 172.343 57.4399 172.343 57.4399C172.343 57.4399 169.395 58.0038 168.694 54.1793C168.043 50.5999 168.608 53.6154 168.682 54.0199C168.608 53.6154 168.08 50.4896 168.879 46.8244C168.879 46.8244 169.542 44.3483 172.343 44.4219C175.144 44.3483 175.808 46.8244 175.808 46.8244C176.594 50.5019 176.078 53.6154 176.004 54.0199C176.078 53.6154 176.643 50.5999 175.992 54.1793Z" fill="#FFF5E5"/>
<path fill-rule="evenodd" clip-rule="evenodd" d="M175.993 54.0199C175.993 54.0444 175.98 54.0689 175.98 54.0689C175.98 54.0689 175.993 54.0567 175.993 54.0199Z" fill="#FFF5E5"/>
<path fill-rule="evenodd" clip-rule="evenodd" d="M182.245 43.294C182.245 43.294 181.717 43.3063 181.717 43.7476V44.2134C181.717 44.2134 181.692 44.6792 182.38 44.6792L182.712 44.6547C182.712 44.6547 183.4 44.5443 183.4 45.7088V53.5663C183.4 53.5663 183.683 58.9721 189.789 58.9966C189.789 58.9966 196.067 59.3275 195.87 53.3701V45.5617C195.87 45.5617 195.735 44.6546 196.669 44.6301H196.939C196.939 44.6301 197.295 44.6301 197.295 44.2134V43.7966C197.295 43.7966 197.43 43.3063 196.877 43.294H193.204C193.204 43.294 192.713 43.2695 192.713 43.6863L192.688 44.0418C192.688 44.0418 192.577 44.6179 193.216 44.6179C193.216 44.6179 194.211 44.4463 194.236 45.7701V53.4069C194.236 53.4069 194.629 57.403 191.005 57.403C191.005 57.403 186.975 58.0895 186.975 53.1617V45.5004C186.975 45.5004 187.086 44.6424 187.86 44.6179H188.081C188.081 44.6179 188.437 44.6669 188.474 44.1521V43.7598C188.474 43.7598 188.585 43.294 188.118 43.2817H182.245V43.294Z" fill="#FFF5E5"/>
<path fill-rule="evenodd" clip-rule="evenodd" d="M210.748 43.294C210.748 43.294 210.306 43.2694 210.11 43.6985L209.151 46.0152C209.151 46.0152 208.918 46.5301 209.483 46.5301H210.22C210.22 46.5301 210.49 46.6404 210.798 46.1133L211.326 45.0591C211.326 45.0591 211.584 44.6914 212.1 44.7159H214.311C214.311 44.7159 214.962 44.6178 214.975 45.5249V56.643C214.975 56.643 215.085 57.4152 214.631 57.4888H214.041C214.041 57.4888 213.709 57.5256 213.685 57.8933V58.4817C213.685 58.4817 213.611 58.923 214.127 58.923H219.852C219.852 58.923 220.245 58.9965 220.245 58.5185V58.0772C220.245 58.0772 220.331 57.5256 219.914 57.5256L219.238 57.5011C219.238 57.5011 218.525 57.6849 218.587 56.4591V45.5617C218.587 45.5617 218.366 44.7159 219.213 44.7159H221.4C221.4 44.7159 221.83 44.5811 222.162 45.1694L222.69 46.0888C222.69 46.0888 222.924 46.5178 223.403 46.5301H224.103C224.103 46.5301 224.619 46.5301 224.398 45.9417L223.415 43.6249C223.415 43.6249 223.378 43.294 222.641 43.294H210.748Z" fill="#FFF5E5"/>
</g>
<defs>
<clipPath id="clip0_58_68">
<rect width="264" height="76" fill="white" transform="translate(0.5 0.133301)"/>
</clipPath>
</defs>
</svg>
