<svg width="40" height="40" viewBox="0 0 40 40" fill="none" xmlns="http://www.w3.org/2000/svg">
<path d="M8.79272 8.75122C7.4871 8.75122 6.46918 9.1313 5.7373 9.8938C5.00543 10.6563 4.63867 11.8072 4.63867 13.3447V26.6565C4.63867 28.194 5.02992 29.3437 5.81055 30.1062C6.5918 30.8687 7.75604 31.25 9.30542 31.25H31.2073C32.5123 31.25 33.5308 30.8687 34.2627 30.1062C34.9946 29.3437 35.3601 28.194 35.3601 26.6565V13.3447C35.3601 11.8072 34.9701 10.6563 34.1895 9.8938C33.4082 9.1313 32.2427 8.75122 30.6934 8.75122H8.79272ZM9.19678 11.2402H30.7861C30.906 11.2402 31.0155 11.2529 31.1255 11.2646L21.7297 20.5676C21.4129 20.8726 21.1167 21.0989 20.8423 21.2451C20.5679 21.3914 20.2904 21.4648 20.0098 21.4648C19.7166 21.4648 19.4321 21.3914 19.1577 21.2451C18.8833 21.0989 18.5878 20.8726 18.2703 20.5676L8.87451 11.2634C8.97923 11.2529 9.08295 11.2402 9.19678 11.2402ZM7.17407 12.9395L14.3164 19.9817L7.17651 27.0935C7.15889 26.9553 7.14722 26.8117 7.14722 26.6565V13.3264C7.14722 13.1893 7.15983 13.0633 7.17407 12.9395ZM32.8271 12.9529C32.8416 13.0784 32.854 13.2055 32.854 13.3447V26.6748C32.854 26.8283 32.8429 26.9713 32.8247 27.1082L25.6848 19.9829L32.8271 12.9529ZM23.9868 21.6541L31.0876 28.7402C30.989 28.7495 30.8926 28.761 30.7861 28.761H9.19678C9.10183 28.761 9.01682 28.7488 8.92822 28.7415L16.0217 21.6626L16.8799 22.5085C17.4043 23.021 17.9226 23.3924 18.4351 23.6243C18.9476 23.8561 19.4729 23.9722 20.0098 23.9722C20.5466 23.9722 21.0678 23.8561 21.5747 23.6243C22.081 23.3924 22.5957 23.0198 23.1201 22.5073L23.9868 21.6541Z" fill="#FFF5E5"/>
</svg>
