<svg width="149" height="77" viewBox="0 0 149 77" fill="none" xmlns="http://www.w3.org/2000/svg">
<g clip-path="url(#clip0_58_54)">
<path d="M133.31 53.2251L138.65 63.8327H127.97L133.31 53.2251ZM68.4826 45.5351V73.7559H85.4104V69.6498H72.6656V61.6716H85.0188V57.5654H72.6656V49.6593H85.4104V45.5531H68.4826V45.5351ZM104.136 49.0289C98.3154 49.0289 93.7764 53.7114 93.7764 59.6365C93.7764 65.5616 98.3154 70.2441 104.136 70.2441C108.871 70.2441 112.983 67.0564 114.14 62.6981H104.385V58.5919H118.643C118.679 58.9161 118.679 59.2763 118.679 59.6365C118.679 67.7408 112.146 74.3502 104.136 74.3502C96.126 74.3502 89.5934 67.7408 89.5934 59.6365C89.5934 51.5322 96.126 44.9228 104.136 44.9228C109.031 44.9228 113.374 47.3901 116.009 51.1721L112.662 53.5853C110.829 50.8479 107.732 49.0289 104.136 49.0289ZM122.986 73.7379L125.905 67.9209H140.715L143.616 73.7379H148.316L133.292 43.9142L118.287 73.7379H122.986ZM25.2108 59.6365C25.2108 65.5616 20.6718 70.2441 14.8512 70.2441C9.03059 70.2441 4.49159 65.5616 4.49159 59.6365C4.49159 53.7114 9.03059 49.0289 14.8512 49.0289C20.6718 49.0289 25.2108 53.7114 25.2108 59.6365ZM34.7694 73.7379L40.0204 56.6469L47.6388 74.5484L55.2572 56.6469L60.5082 73.7379H64.887L55.8446 44.7247L47.6388 64.0668L39.433 44.7247L30.3906 73.7379H34.7694ZM0.308594 59.6365C0.308594 67.7408 6.84119 74.3502 14.8512 74.3502C22.8612 74.3502 29.3938 67.7408 29.3938 59.6365C29.3938 51.5322 22.8612 44.9228 14.8512 44.9228C6.84119 44.9228 0.308594 51.5322 0.308594 59.6365ZM72.1138 3.51897C80.6756 3.51897 85.9444 10.6507 85.9444 18.4308C85.9444 26.0128 81.7258 32.136 75.9052 36.5303L76.19 37.0526H89.7714L92.7262 31.3796H91.2844L89.4154 34.2071H82.4378C87.2616 30.7313 91.2844 25.2924 91.2844 18.6109C91.2844 7.93129 81.7614 1.71802 72.1138 1.71802C62.4662 1.71802 52.9432 7.93129 52.9432 18.6109C52.9432 25.2924 56.966 30.7493 61.7898 34.2071H54.8122L52.9432 31.3796H51.5192L54.474 37.0526H68.0554L68.3402 36.5303C62.5196 32.136 58.301 26.0128 58.301 18.4308C58.2832 10.6687 63.5342 3.51897 72.1138 3.51897Z" fill="#FFF5E5"/>
</g>
<defs>
<clipPath id="clip0_58_54">
<rect width="148" height="76" fill="white" transform="translate(0.5 0.133301)"/>
</clipPath>
</defs>
</svg>
