<svg width="205" height="77" viewBox="0 0 205 77" fill="none" xmlns="http://www.w3.org/2000/svg">
<g clip-path="url(#clip0_58_122)">
<path d="M0.5 27.1333H14.5378C17.3151 27.1333 19.5512 27.6831 21.2461 28.7915C22.9498 29.8911 23.7927 31.4429 23.7927 33.438C23.7927 35.1583 23.0385 36.648 21.5211 37.9249C20.0038 39.1929 17.6789 39.8314 14.5289 39.8314H4.73262V49.1244H0.508877V27.1333H0.5ZM16.9868 30.1571C16.0551 29.8467 14.7685 29.696 13.1446 29.696H4.73262V37.3131H13.1446C15.0435 37.3131 16.5786 37.0293 17.7677 36.4618C18.9478 35.8943 19.5424 34.8923 19.5424 33.4557C19.5335 31.833 18.6816 30.7335 16.9868 30.1571ZM38.8953 27.1333H43.6692L54.9917 49.1244H50.3598L47.192 42.536H34.8579L31.4771 49.1244H27.1469L38.8953 27.1333ZM45.8343 40.1152L41.0959 30.3965L36.0647 40.1152H45.8343ZM62.7559 27.1333H67.7517L83.5109 44.9479V27.1333H87.5217V49.1244H82.7833L66.7845 31.3276V49.1244H62.7471V27.1333H62.7559ZM98.4892 27.1333H121.241V29.829H102.615V36.5061H119.839V39.0511H102.615V46.5086H121.56V49.1244H98.4892V27.1333ZM131.525 27.1333H145.971C148.349 27.1333 150.31 27.3816 151.854 27.8693C154.782 28.8092 156.255 30.5384 156.255 33.0656C156.255 34.3868 155.865 35.4598 155.102 36.3022C154.33 37.1446 153.247 37.8096 151.863 38.3239C153.079 38.6698 154.001 39.1309 154.614 39.6984C155.226 40.2659 155.572 41.1881 155.643 42.465L155.794 45.4179C155.838 46.2603 155.936 46.881 156.095 47.2889C156.353 47.9894 156.805 48.4328 157.453 48.6367V49.1333H152.271C152.129 48.9471 152.014 48.6988 151.934 48.3973C151.845 48.0958 151.774 47.5194 151.721 46.6593L151.464 42.9882C151.366 41.5517 150.603 40.5851 149.192 40.0974C148.384 39.8314 147.116 39.6895 145.394 39.6895H135.775V49.1156H131.552V27.1333H131.525ZM145.518 37.2067C147.497 37.2067 149.068 36.9318 150.221 36.3643C151.375 35.8056 151.952 34.7947 151.952 33.3405C151.952 31.7709 151.144 30.7069 149.529 30.1393C148.668 29.8379 147.515 29.6871 146.069 29.6871H135.749V37.2067H145.518ZM175.413 27.1333H180.196L191.518 49.1244H186.886L183.718 42.536H171.376L167.995 49.1244H163.665L175.413 27.1333ZM182.361 40.1152L177.622 30.3965L172.591 40.1152H182.361ZM200.232 27.1333H204.5V49.1244H200.232V27.1333Z" fill="#FFF5E5"/>
</g>
<defs>
<clipPath id="clip0_58_122">
<rect width="204" height="76" fill="white" transform="translate(0.5 0.133301)"/>
</clipPath>
</defs>
</svg>
