<svg width="148" height="77" viewBox="0 0 148 77" fill="none" xmlns="http://www.w3.org/2000/svg">
<g clip-path="url(#clip0_58_27)">
<path d="M22.4524 53.0646H15.616L14.2304 56.6942H12.2501L18.2434 41.4811H20.0799L25.9751 56.6942H23.8379L22.4524 53.0646ZM16.2434 51.4135H21.8315L19.0472 44.1018L16.2434 51.4135ZM5.917 43.106V48.6094H8.5901C8.5901 48.6094 9.07374 48.5898 9.31556 48.5898C10.126 48.5898 10.6619 48.4129 11.1782 47.9411C11.6946 47.4563 11.9233 46.6701 11.9233 45.8511C11.956 45.078 11.6815 44.318 11.1717 43.7415C10.6423 43.1649 9.66196 43.106 9.49203 43.106H9.22406H5.917ZM3.98896 41.4877H9.21753C10.0084 41.4877 11.407 41.6711 12.3547 42.4442C13.6553 43.5056 13.8906 44.888 13.8906 45.8184C13.8906 46.7487 13.6618 47.9935 12.7534 48.8846C11.5704 50.0508 10.3286 50.2277 8.58357 50.2277H5.91046V56.6942H3.98242V41.4877H3.98896ZM76.6857 41.4811H78.6072V48.0066H85.424V41.4811H87.3455V56.6942H85.424V49.6904H78.6072V56.6942H76.6857V41.4811ZM90.7506 41.4811H92.6721V56.6877H90.7506V41.4811ZM95.9857 41.4811H97.9072V55.0104H104.482V56.6942H95.9857V41.4811ZM34.8963 41.4811V43.1649H30.2756V56.6942H28.3476V43.1649H23.7137V41.4811H34.8963ZM45.1313 41.4811L44.1705 43.1649H38.4322V47.9215H43.7915V49.6053H38.4322V55.0039H44.0398L45.0006 56.6877H36.5041V41.4746H45.1313V41.4811ZM49.1246 48.616L55.6538 41.4746L58.0589 41.4811L53.0591 46.906L58.17 56.6942H55.974L51.7323 48.3146L49.1311 51.1253V56.6942H47.2096V41.4811H49.1311L49.1246 48.616ZM66.5096 43.106V48.6094H69.1827C69.1827 48.6094 69.6664 48.5898 69.9082 48.5898C70.7251 48.5898 71.2611 48.4129 71.7709 47.9411C72.2872 47.4563 72.5159 46.6701 72.5159 45.8511C72.5486 45.078 72.2741 44.318 71.7643 43.7415C71.2415 43.1649 70.2546 43.106 70.0781 43.106H69.8167H66.5096ZM64.5816 41.4877H69.8101C70.601 41.4877 72.0061 41.6711 72.9538 42.4442C74.2544 43.5056 74.4832 44.888 74.4832 45.8184C74.4832 46.7487 74.2544 47.9935 73.346 48.8846C72.1565 50.0508 70.9147 50.2277 69.1696 50.2277H66.4965V56.6942H64.5685V41.4877H64.5816ZM106.103 41.4811H108.018V56.6877H106.103V41.4811ZM113.207 43.106V48.6094H115.88C115.88 48.6094 116.357 48.5898 116.606 48.5898C117.416 48.5898 117.959 48.4129 118.462 47.9411C118.985 47.4563 119.207 46.6701 119.207 45.8511C119.24 45.078 118.972 44.318 118.455 43.7415C117.926 43.1649 116.939 43.106 116.769 43.106H116.508H113.207ZM111.286 41.4877H116.508C117.305 41.4877 118.697 41.6711 119.645 42.4442C120.952 43.5056 121.181 44.888 121.181 45.8184C121.181 46.7487 120.959 47.9935 120.044 48.8846C118.861 50.0508 117.612 50.2277 115.874 50.2277H113.201V56.6942H111.279L111.286 41.4877ZM125.226 43.106V48.6094H127.9C127.9 48.6094 128.377 48.5898 128.625 48.5898C129.435 48.5898 129.978 48.4129 130.481 47.9411C131.004 47.4563 131.226 46.6701 131.226 45.8511C131.259 45.078 130.984 44.318 130.475 43.7415C129.945 43.1649 128.965 43.106 128.788 43.106H128.527H125.226ZM123.305 41.4877H128.527C129.318 41.4877 130.716 41.6711 131.664 42.4442C132.971 43.5056 133.2 44.888 133.2 45.8184C133.2 46.7487 132.978 47.9935 132.063 48.8846C130.88 50.0508 129.638 50.2277 127.893 50.2277H125.22V56.6942H123.298L123.305 41.4877ZM144.01 41.4811L143.049 43.1649H137.311V47.9215H142.677V49.6053H137.311V55.0039H142.932L143.886 56.6877H135.389V41.4746H144.01V41.4811ZM78.1889 74.908H82.2672L82.9665 76.1332H76.7837V65.0804H84.3129L87.5154 74.2266L90.8486 65.0804H92.2865L88.1036 76.1397H86.7638L83.2018 66.2991H78.1824V69.7649H82.0842V70.9901H78.1824V74.908H78.1889ZM65.2482 65.0804L64.5554 66.2991H60.3791V69.7715H64.2809V70.9901H60.3791V74.9146H64.4639L65.1567 76.1397H58.9805V65.087L65.2482 65.0804ZM73.1564 65.1394H74.4897V76.1922H73.0649L68.0651 67.1573V76.1922H66.7318V65.1394H68.5488L73.1564 73.4797V65.1394ZM99.7764 65.0804L99.0771 66.2991H94.9007V69.7715H98.8026V70.9901H94.8942V74.9146H98.979L99.6718 76.1397H93.4956V65.087L99.7764 65.0804ZM56.9217 70.4791V74.4887C56.0132 75.3535 54.863 76.3297 52.582 76.3297C50.02 76.3297 47.7063 74.1546 47.7063 70.7149C47.7063 67.4456 49.8827 64.8773 52.8761 64.8773C55.3008 64.8773 56.5034 66.3777 56.9544 67.0525L55.9544 67.996C55.9544 67.996 54.9348 66.0632 52.8761 66.0632C50.85 66.0632 49.2422 67.8846 49.2422 70.787C49.2422 73.5322 50.9677 75.1504 52.8107 75.1504C54.412 75.1504 55.4839 74.0694 55.5557 73.9908V71.6911H52.2029V70.4856H56.9217V70.4791Z" fill="#FFF5E5"/>
<path d="M73.3011 17.1611H66.5236C65.4321 17.1611 64.3211 17.8294 64.3211 18.727C64.3211 19.0546 64.5825 19.6639 65.4909 19.6639C66.6608 19.6639 67.6673 18.4584 68.7065 18.4584C69.628 18.4584 69.7588 19.3035 69.7588 19.3035C69.2098 19.2904 69.0072 19.3166 68.3274 19.6573C67.6804 19.9718 66.8242 20.7515 66.2556 21.3673C65.687 21.9832 64.772 22.776 63.6675 22.776C62.5564 22.776 61.478 22.0684 61.478 20.7842C61.478 19.0808 62.8309 18.537 62.8309 17.9146C62.8309 17.7311 62.7459 17.4953 62.3865 17.4953C61.8375 17.4953 60.7656 18.3011 59.7264 18.3011C58.3017 18.3011 57.0664 16.696 57.0664 16.696C57.0664 16.696 58.3017 15.0908 59.7264 15.0908C60.7656 15.0908 61.8375 15.8966 62.3865 15.8966C62.7459 15.8966 62.8309 15.6542 62.8309 15.4708C62.8309 14.8615 61.478 14.3111 61.478 12.6077C61.478 11.3235 62.5629 10.616 63.6675 10.616C64.772 10.616 65.687 11.4087 66.2556 12.0246C66.8242 12.6339 67.6804 13.4201 68.3274 13.7346C69.0072 14.0753 69.2098 14.0949 69.7588 14.0884C69.7588 14.0884 69.628 14.9335 68.7065 14.9335C67.6608 14.9335 66.6608 13.7215 65.4909 13.7215C64.5825 13.7215 64.3211 14.3373 64.3211 14.6584C64.3211 15.5625 65.4321 16.2308 66.5236 16.2308H73.3011V9.43664C73.3011 8.33595 72.6279 7.23526 71.7326 7.23526C71.4058 7.23526 70.7979 7.49078 70.7979 8.40802C70.7979 9.57423 72.007 10.5897 72.007 11.6315C72.007 12.5487 71.1574 12.6797 71.1574 12.6797C71.1705 12.1294 71.1443 11.9328 70.8045 11.2449C70.4908 10.6028 69.713 9.73802 69.0987 9.16802C68.4908 8.59802 67.6935 7.67423 67.6935 6.57354C67.6935 5.4663 68.4059 4.37871 69.6869 4.37871C71.3862 4.37871 71.9352 5.74147 72.5495 5.74147C72.7325 5.74147 72.9678 5.64974 72.9678 5.29595C72.9678 4.74561 72.1639 3.67113 72.1639 2.62285C72.1639 1.19457 73.7652 -0.0437012 73.7652 -0.0437012C73.7652 -0.0437012 75.3664 1.19457 75.3664 2.62285C75.3664 3.66457 74.5625 4.73905 74.5625 5.29595C74.5625 5.6563 74.7978 5.74147 74.9808 5.74147C75.5886 5.74147 76.1442 4.37871 77.8369 4.37871C79.1179 4.37871 79.8303 5.4663 79.8303 6.57354C79.8303 7.68078 79.0395 8.59802 78.4251 9.16802C77.8108 9.74457 77.033 10.6028 76.7128 11.2449C76.3794 11.9328 76.3533 12.1294 76.3664 12.6797C76.3664 12.6797 75.5167 12.5487 75.5167 11.6315C75.5167 10.5832 76.7258 9.57423 76.7258 8.40802C76.7258 7.49733 76.118 7.23526 75.7912 7.23526C74.8958 7.23526 74.2227 8.3425 74.2227 9.43664V16.2308H81.0002C82.0917 16.2308 83.1962 15.5625 83.1962 14.6584C83.1962 14.3308 82.9413 13.7215 82.0263 13.7215C80.8629 13.7215 79.8499 14.9335 78.8107 14.9335C77.8957 14.9335 77.765 14.0884 77.765 14.0884C78.314 14.1015 78.5166 14.0753 79.1963 13.7346C79.8368 13.4201 80.693 12.6404 81.2616 12.0246C81.8302 11.4153 82.7518 10.616 83.8498 10.616C84.9608 10.616 86.0392 11.3301 86.0392 12.6142C86.0392 14.3177 84.6798 14.868 84.6798 15.4773C84.6798 15.6673 84.7648 15.9032 85.1308 15.9032C85.6798 15.9032 86.7516 15.0973 87.7908 15.0973C89.2156 15.0973 90.4508 16.7025 90.4508 16.7025C90.4508 16.7025 89.2156 18.3077 87.7908 18.3077C86.7516 18.3077 85.6798 17.5018 85.1308 17.5018C84.7648 17.5018 84.6798 17.7377 84.6798 17.9211C84.6798 18.5435 86.0392 19.0873 86.0392 20.7908C86.0392 22.0749 84.9543 22.7825 83.8498 22.7825C82.7452 22.7825 81.8302 21.9897 81.2616 21.3739C80.693 20.7646 79.8368 19.9784 79.1898 19.6639C78.5101 19.3232 78.314 19.3035 77.7585 19.3101C77.7585 19.3101 77.8827 18.4649 78.8042 18.4649C79.8499 18.4649 80.8629 19.677 82.0198 19.677C82.9348 19.677 83.1897 19.0611 83.1897 18.7401C83.1897 17.836 82.0851 17.1677 80.9937 17.1677H74.2161V23.9618C74.2161 25.0625 74.8893 26.1632 75.7847 26.1632C76.1115 26.1632 76.7193 25.9077 76.7193 24.997C76.7193 23.8242 75.5102 22.8087 75.5102 21.767C75.5102 20.8497 76.3598 20.7187 76.3598 20.7187C76.3468 21.2691 76.3729 21.4656 76.7062 22.1535C77.0265 22.7956 77.8042 23.6604 78.4186 24.2304C79.0329 24.8004 79.8238 25.7242 79.8238 26.8315C79.8238 27.9387 79.1114 29.0263 77.8304 29.0263C76.1311 29.0263 75.5821 27.6701 74.9743 27.6701C74.7913 27.6701 74.556 27.7553 74.556 28.1091C74.556 28.6594 75.3599 29.7339 75.3599 30.7756C75.3599 32.2039 73.7586 33.4422 73.7586 33.4422C73.7586 33.4422 72.1574 32.2039 72.1574 30.7756C72.1574 29.7404 72.9613 28.6594 72.9613 28.1091C72.9613 27.7487 72.726 27.6701 72.543 27.6701C71.9286 27.6701 71.3796 29.0263 69.6803 29.0263C68.3993 29.0263 67.6869 27.9387 67.6869 26.8315C67.6869 25.7242 68.4778 24.8004 69.0921 24.237C69.7065 23.667 70.4842 22.8022 70.7979 22.1601C71.1378 21.4722 71.1639 21.2756 71.1509 20.7187C71.1509 20.7187 72.0005 20.8497 72.0005 21.767C72.0005 22.8087 70.7914 23.8242 70.7914 24.997C70.7914 25.9077 71.3992 26.1632 71.726 26.1632C72.6214 26.1632 73.2946 25.056 73.2946 23.9618L73.3011 17.1611Z" fill="#FFF5E5"/>
</g>
<defs>
<clipPath id="clip0_58_27">
<rect width="147" height="76" fill="white" transform="translate(0.5 0.133301)"/>
</clipPath>
</defs>
</svg>
