<svg width="254" height="75" viewBox="0 0 254 75" fill="none" xmlns="http://www.w3.org/2000/svg">
<path d="M17.21 34.5977C17.21 35.5009 16.9685 35.883 16.175 35.883H9.735V30.0704H16.175C16.9455 30.0704 17.21 30.4641 17.21 31.2977V34.5977ZM23.4775 46.7788C22.6725 45.9567 22.3505 45.2388 21.994 44.3125L19.6825 38.4188C21.672 38.1525 22.6265 37.1104 22.6265 35.2577V31.1819C22.6265 29.0861 21.442 27.6272 18.9465 27.6272H3.8125C3.985 28.2872 4.169 28.8777 4.169 30.0704V44.3125C4.169 45.5051 3.9965 46.1072 3.8125 46.7788H10.0915C9.919 46.1072 9.735 45.5051 9.735 44.3125V38.3261H13.8865L17.1525 46.7788H23.4775ZM26.433 46.7788C26.6055 46.1072 26.7895 45.5051 26.7895 44.3125V30.0819C26.7895 28.8893 26.617 28.2872 26.433 27.6272H32.712C32.5395 28.2872 32.3555 28.8893 32.3555 30.0819V44.3125C32.3555 45.5051 32.528 46.1072 32.712 46.7788H26.433ZM51.3535 46.7788H40.256C37.7145 46.7788 36.53 45.3546 36.53 43.0156V31.3788C36.53 29.0514 37.7145 27.6156 40.256 27.6156H51.3535L51.825 30.5104C51.0775 30.2093 50.307 30.0588 49.1225 30.0588H43.0965C42.4755 30.0588 42.0845 30.3019 42.0845 31.0777V43.3051C42.0845 44.0809 42.4755 44.3241 43.0965 44.3241H49.1225C50.307 44.3241 51.0775 44.1735 51.825 43.8725L51.3535 46.7788ZM68.293 46.7788C68.477 46.1072 68.6495 45.5051 68.6495 44.3125V38.3261H61.1285V44.3125C61.1285 45.5051 61.3125 46.1072 61.485 46.7788H55.206C55.3785 46.1072 55.5625 45.5051 55.5625 44.3125V30.0819C55.5625 28.8893 55.39 28.2872 55.206 27.6272H61.485C61.3125 28.2872 61.1285 28.8893 61.1285 30.0819V35.883H68.6495V30.0819C68.6495 28.8893 68.477 28.2872 68.293 27.6272H74.572C74.3995 28.2872 74.2155 28.8893 74.2155 30.0819V44.3125C74.2155 45.5051 74.388 46.1072 74.572 46.7788H68.293ZM90.258 38.8935H83.841L87.015 31.6451L90.258 38.8935ZM100.114 46.7788C99.5845 46.2925 99.044 45.2156 98.63 44.3125L91.086 27.6272H84.876L85.681 28.8893L78.7925 44.3125C78.4935 44.9956 77.8955 45.9567 77.332 46.7788H81.0005C81.0005 45.8409 81.2075 44.8798 81.449 44.3125L82.7255 41.3251H91.362L92.673 44.3125C92.995 45.0535 93.179 45.8061 93.179 46.2809C93.179 46.4661 93.179 46.5819 93.1215 46.7672H100.114V46.7788ZM116.282 34.5977C116.282 35.5009 116.041 35.883 115.247 35.883H108.808V30.0704H115.247C116.018 30.0704 116.282 30.4641 116.282 31.2977V34.5977ZM122.55 46.7788C121.745 45.9567 121.423 45.2388 121.066 44.3125L118.755 38.4188C120.744 38.1525 121.699 37.1104 121.699 35.2577V31.1819C121.699 29.0861 120.514 27.6272 118.019 27.6272H102.896C103.069 28.2872 103.253 28.8777 103.253 30.0704V44.3125C103.253 45.5051 103.081 46.1072 102.896 46.7788H109.175C109.003 46.1072 108.819 45.5051 108.819 44.3125V38.3261H112.97L116.236 46.7788H122.55ZM139.11 43.3167C139.11 44.0925 138.719 44.3356 138.098 44.3356H131.428V30.0704L138.098 30.0472C138.719 30.0472 139.11 30.2904 139.11 31.0661V43.3167ZM144.676 43.0156V31.3556C144.676 29.0398 143.492 27.6272 140.95 27.6272H125.505C125.678 28.2756 125.862 28.8661 125.862 30.0356V44.3356C125.862 45.5283 125.689 46.1188 125.505 46.7788H140.938C143.491 46.7788 144.676 45.3546 144.676 43.0156ZM175.139 46.6283C175.312 45.9567 175.496 45.3546 175.496 44.1619V30.2325H175.438L168.941 46.6283H165.077L158.694 30.2325H158.637V44.1619C158.637 45.3546 158.821 45.9567 158.993 46.6283H155.716C155.9 45.9567 156.072 45.3546 156.072 44.1619V29.9314C156.072 28.7388 155.888 28.1367 155.716 27.4767H163.214L168.642 41.3714L174.162 27.4651H181.257C181.073 28.1251 180.901 28.7156 180.901 29.9198V44.1504C180.901 45.343 181.073 45.9451 181.257 46.6167H175.139V46.6283ZM185.719 46.6283C185.892 45.9567 186.076 45.3546 186.076 44.1619V29.9314C186.076 28.7388 185.892 28.1367 185.719 27.4767H191.998C191.814 28.1367 191.642 28.7388 191.642 29.9314V44.1619C191.642 45.3546 191.814 45.9567 191.998 46.6283H185.719ZM212.066 46.6283H196.495C196.679 45.9798 196.852 45.3777 196.852 44.1851V29.9314C196.852 28.7388 196.667 28.1367 196.495 27.4767H202.774C202.59 28.1367 202.417 28.7388 202.417 29.9314V44.1851H209.755C211.031 44.1851 211.836 44.0114 212.549 43.7335L212.066 46.6283ZM230.891 46.6283H215.32C215.504 45.9798 215.677 45.3777 215.677 44.1851V29.9314C215.677 28.7388 215.504 28.1367 215.32 27.4767H221.599C221.427 28.1367 221.243 28.7388 221.243 29.9314V44.1851H228.58C229.856 44.1851 230.661 44.0114 231.374 43.7335L230.891 46.6283ZM249.717 46.6283H234.146C234.318 45.9798 234.502 45.3777 234.502 44.1851V29.9198C234.502 28.7272 234.318 28.1367 234.146 27.4767H249.717L250.188 30.3598C249.475 30.0935 248.67 29.9082 247.394 29.9082H240.057V35.7209H246.612C247.647 35.7209 248.601 35.5472 249.257 35.2693V38.604C248.601 38.3377 247.658 38.1525 246.612 38.1525H240.057V44.1735H247.394C248.67 44.1735 249.475 43.9883 250.188 43.7219L249.717 46.6283Z" fill="#FFF5E5"/>
</svg>
