<svg width="150" height="77" viewBox="0 0 150 77" fill="none" xmlns="http://www.w3.org/2000/svg">
<g clip-path="url(#clip0_58_23)">
<path fill-rule="evenodd" clip-rule="evenodd" d="M95.109 8.83844C93.7949 8.83844 92.728 9.90259 92.728 11.2168C92.728 12.0443 93.1333 12.7706 93.7755 13.1963L85.7012 30.5056L87.3879 7.45726C88.6991 7.34564 89.672 6.19515 89.5603 4.88542C89.456 3.65308 88.4249 2.7065 87.1867 2.7065C85.8725 2.7065 84.8057 3.77066 84.8057 5.08486C84.8057 6.11925 85.4658 6.98099 86.3896 7.30992L80.8497 29.8135L78.1081 4.98812C79.1437 4.71724 79.8649 3.78108 79.8634 2.71097C79.8634 1.39826 78.798 0.332611 77.4823 0.332611C76.1682 0.332611 75.1013 1.39677 75.1013 2.71097C75.1013 3.89717 75.9774 4.85565 77.1158 5.03425L74.9061 29.2212L68.4857 7.37987C69.2695 6.97355 69.7612 6.16539 69.7597 5.28281C69.7597 3.9701 68.6943 2.90445 67.3787 2.90445C66.063 2.90445 64.9976 3.96861 64.9976 5.28281C64.9976 6.59552 66.063 7.66117 67.3787 7.66117C67.4129 7.66117 67.4502 7.65819 67.4829 7.6567L70.2499 30.5071L60.9255 13.8809C61.9595 13.0698 62.1413 11.5755 61.3293 10.5426C60.5172 9.50967 59.0212 9.3281 57.9872 10.1392C56.9531 10.9504 56.7713 12.4447 57.5834 13.4776C58.1466 14.1949 59.0704 14.5283 59.9629 14.3334L67.775 37.727C69.557 43.1668 85.4002 43.2666 87.7767 37.727L94.8319 13.5669C94.9302 13.5788 95.0047 13.5966 95.1061 13.5966C96.4202 13.5728 97.4677 12.4893 97.4439 11.1766C97.423 9.89366 96.3904 8.86225 95.109 8.83844ZM77.5822 40.2274C73.5443 40.2274 70.2722 39.0114 70.2722 37.5127C70.2722 36.0139 73.5458 35.3084 77.5822 35.3084C81.6186 35.3084 84.463 36.0124 84.463 37.5127C84.463 39.0129 81.6186 40.2274 77.5822 40.2274ZM89.0596 54.1597H91.4168C92.8472 54.1597 93.3479 54.4812 93.3479 55.7313V71.1222C93.3479 72.3367 92.8472 72.801 91.4168 72.801H89.0596V75.2895H113.153V65.0721H110.875C110.875 70.1101 108.877 72.7594 105.515 72.7594H98.7551V64.5721H100.083C102.264 64.5721 103.51 65.538 103.51 67.3225V68.7528H106.123V57.3894H103.51V58.6396C103.51 60.3928 102.193 61.4614 100.083 61.4614H98.7551V54.1612H105.052C109.668 54.1612 110.626 56.8163 110.876 60.7828H113.154V51.4584H89.0611L89.0596 54.1597ZM78.4613 72.7564H72.7516V55.8385C72.7516 54.5883 73.2522 54.1597 74.6826 54.1597H76.8282V51.5149H63.5076V54.1597H65.3686C66.799 54.1597 67.2997 54.5883 67.2997 55.8385V71.1207C67.2997 72.3352 66.799 72.7996 65.3686 72.7996H63.5076V75.3476H86.0856V64.8786H83.5109C83.4394 68.9879 83.4677 72.7564 78.4613 72.7564ZM46.611 50.7886C38.3833 50.7886 33.2606 57.1259 33.2323 63.0882C33.1951 70.8052 38.3117 75.6646 46.3607 75.6646C54.9088 75.6646 59.8825 70.8766 59.8825 62.6938C59.8825 56.6318 54.517 50.7886 46.611 50.7886ZM46.4322 72.8546C42.1395 72.8546 39.6721 69.0207 39.6721 62.9096C39.6721 56.9429 42.2483 53.862 46.6483 53.862C50.8695 53.862 53.3369 57.0143 53.3369 63.1596C53.3369 69.1636 50.8337 72.8546 46.4322 72.8546ZM144.804 54.1597H147.31V51.4822H135.199V54.1597H136.783C137.377 54.2505 137.774 54.8607 137.181 55.453L133.815 59.3108L131.142 56.0469C130.547 55.3548 130.646 54.1671 131.735 54.1671L132.958 54.1597V51.4822H119.158V54.1597C122.623 54.2579 123.489 54.6627 124.741 56.2701L130.348 63.0703L122.722 71.082C121.363 72.618 121.233 72.7564 119.158 72.7564V75.3148H131.239V72.7564H128.348C127.491 72.7564 127.311 72.1343 127.311 71.6714C127.311 71.207 127.919 70.6712 128.169 70.3483L132.426 65.535L136.686 70.5983C136.901 70.8841 137.257 71.2056 137.257 71.5628C137.257 72.0271 136.863 72.7549 136.041 72.7549H133.646V75.3134H147.311V72.7549C145.152 72.7549 144.958 72.6537 143.021 70.2902L135.892 61.8826L140.743 56.6392C142.531 54.7476 143.23 54.1597 144.804 54.1597ZM27.5524 68.467V69.6904C27.5524 71.155 26.6957 71.9051 25.9805 71.9051C24.8362 71.9051 24.7647 70.512 24.6931 69.6904V68.7007C24.6931 65.4368 23.2076 64.1494 21.3272 63.1611C24.8332 62.341 27.1591 60.2484 27.1591 57.3536C27.1591 53.6016 24.5829 51.4584 20.0056 51.4584H2.69031V54.1597H5.03408C6.46448 54.1597 6.96512 54.4901 6.96512 55.7403V71.0776C6.96512 72.292 6.46448 72.7564 5.03408 72.7564H2.69031V75.291H16.1763V72.7564H14.3153C12.8849 72.7564 12.3842 72.292 12.3842 71.0776V64.2491H14.7891C17.3653 64.2491 19.2517 65.6883 19.3947 68.403L19.6093 71.5389C19.7523 74.398 21.6833 75.9325 25.082 75.9325C28.6953 75.9325 29.5431 74.1822 29.5431 70.4659V68.4655L27.5524 68.467ZM16.5726 61.1489H12.3872V54.1403H16.1063C19.6838 54.1403 20.9711 55.325 20.9711 57.6468C20.9726 60.0401 19.578 61.1489 16.5726 61.1489Z" fill="#FFF5E5"/>
</g>
<defs>
<clipPath id="clip0_58_23">
<rect width="149" height="76" fill="white" transform="translate(0.5 0.133301)"/>
</clipPath>
</defs>
</svg>
