<svg width="57" height="49" viewBox="0 0 57 49" fill="none" xmlns="http://www.w3.org/2000/svg">
<g clip-path="url(#clip0_58_131)">
<path fill-rule="evenodd" clip-rule="evenodd" d="M0.650391 32.1172V0.414819L56.3489 0.411621V32.1204L28.5029 47.8548L0.650391 32.1172Z" fill="#FFF5E5"/>
<path d="M2.10994 1.80688H2.05794L2.05469 31.3077L28.4804 46.2645L28.4934 46.2709H28.5292L54.9029 31.3237L54.9322 31.3077V1.82288L2.10994 1.80688Z" fill="black"/>
<path fill-rule="evenodd" clip-rule="evenodd" d="M3.51953 3.19876V19.17H53.4623V3.19556L3.51953 3.19876Z" fill="#FFF5E5"/>
<path fill-rule="evenodd" clip-rule="evenodd" d="M3.51953 20.5652V30.4884L28.5055 44.6164L53.4623 30.4948V20.5652H3.51953Z" fill="#FFF5E5"/>
<path fill-rule="evenodd" clip-rule="evenodd" d="M15.7085 17.2885V7.65014H20.8922V5.08374H6.8457V7.65014H12.0295V17.2885H15.7085Z" fill="black"/>
<path fill-rule="evenodd" clip-rule="evenodd" d="M49.5406 17.0613C46.7196 17.5989 43.0894 17.7557 40.4666 16.7349C38.2274 15.9029 36.8494 13.9253 36.5634 11.9893C36.2644 9.6085 37.3206 7.5253 39.5729 6.1269C42.1956 4.5365 46.3589 4.59089 49.2189 5.69489V8.35089C47.0544 7.50929 43.7979 6.77969 41.7211 8.11729C40.2294 9.08369 39.7711 10.6197 40.1416 12.1589C40.4406 13.3685 41.6691 14.4661 43.0374 14.8661C44.0091 15.1285 45.1986 15.2117 46.2809 15.0965V13.1253L44.8509 13.1317V10.7541H49.5341L49.5406 17.0613Z" fill="black"/>
<path fill-rule="evenodd" clip-rule="evenodd" d="M24.438 14.8917L23.1997 17.2885H19.4492L25.5397 5.08374H29.7452L35.9495 17.2885H32.186L30.886 14.8917H24.438ZM27.6847 8.11094L25.4552 12.4085H29.7745L27.6847 8.11094Z" fill="black"/>
<path d="M32.5748 39.8613V22.4629C32.5748 22.4149 32.5326 22.3733 32.4806 22.3733H30.6801C30.6281 22.3733 30.5858 22.4149 30.5858 22.4629V38.7989L28.5026 39.9221L26.4096 38.7989V22.4629C26.4096 22.4149 26.3673 22.3733 26.3186 22.3733H24.5148C24.4888 22.3733 24.4661 22.3829 24.4498 22.3989C24.4336 22.4149 24.4238 22.4373 24.4238 22.4629V39.8613C24.4238 39.8933 24.4401 39.9221 24.4693 39.9413L28.4571 42.1941C28.4863 42.2101 28.5188 42.2101 28.5481 42.1941L32.5293 39.9413C32.5586 39.9253 32.5748 39.8965 32.5748 39.8613Z" fill="black"/>
<path d="M21.5027 38.2676C21.5287 38.2836 21.5612 38.2836 21.5872 38.2676C21.6164 38.2516 21.6327 38.2196 21.6327 38.1876V36.3028C21.6327 36.2708 21.6132 36.2388 21.5839 36.2228L17.7652 34.1716V29.618L21.1939 30.482C21.2232 30.482 21.2622 30.4404 21.2622 30.3892V28.53C21.2622 28.4948 21.2199 28.4532 21.1744 28.4436L17.7652 27.7012V24.0884H21.5449C21.5937 24.0884 21.6327 24.0468 21.6327 23.9988V22.4724C21.6327 22.4212 21.5937 22.3796 21.5449 22.3796H15.9354C15.8867 22.3796 15.8477 22.418 15.8477 22.4724V35.0132C15.8477 35.0484 15.8639 35.0772 15.8932 35.0932L21.5027 38.2676Z" fill="black"/>
<path d="M41.5382 34.7893V33.0901C41.5382 33.0581 41.5187 33.0293 41.4927 33.0101C41.4635 32.9941 41.4277 32.9941 41.4017 33.0101L37.6545 35.0261V30.0181L41.145 29.1381C41.1873 29.1285 41.2165 29.0933 41.2165 29.0485V27.3845C41.2165 27.3589 41.2035 27.3301 41.1808 27.3141C41.1645 27.3013 41.1417 27.2949 41.1222 27.2949L37.6545 28.0437V24.0853H41.444C41.496 24.0853 41.5382 24.0469 41.5382 23.9925V22.4661C41.5382 22.4149 41.496 22.3765 41.444 22.3765H35.8443C35.7923 22.3765 35.75 22.4181 35.75 22.4661V37.9669C35.75 37.9989 35.7695 38.0277 35.7955 38.0469C35.8215 38.0629 35.8605 38.0629 35.8865 38.0469L41.4895 34.8725C41.5188 34.8533 41.5382 34.8213 41.5382 34.7893Z" fill="black"/>
<path d="M11.1247 32.3957L12.6717 33.2757C12.7009 33.2917 12.7367 33.2917 12.7659 33.2757C12.7952 33.2597 12.8114 33.2309 12.8114 33.1989V22.4693C12.8114 22.4181 12.7692 22.3765 12.7204 22.3765H11.1734C11.1247 22.3765 11.0824 22.4181 11.0824 22.4693V26.2517L7.35467 25.4421V22.4661C7.35467 22.4149 7.31242 22.3733 7.26042 22.3733H5.72967C5.70692 22.3733 5.68417 22.3829 5.66467 22.3989C5.64517 22.4149 5.63867 22.4373 5.63867 22.4629V29.2501C5.63867 29.2821 5.65817 29.3109 5.68417 29.3269L7.21492 30.1845C7.24417 30.2005 7.27992 30.2005 7.30592 30.1845C7.33517 30.1685 7.35142 30.1365 7.35142 30.1045V26.9941L11.0792 27.9317V32.3125C11.0759 32.3477 11.0954 32.3797 11.1247 32.3957Z" fill="black"/>
<path d="M44.4701 33.1284C44.4993 33.1444 44.5351 33.1444 44.5643 33.1316L46.1633 32.2388C46.1698 32.2356 46.1731 32.2292 46.1731 32.2196V27.874L47.1091 27.634L49.8586 30.0564C49.8846 30.0916 49.9366 30.1044 49.9788 30.0788L51.3796 29.2788C51.4023 29.2692 51.4186 29.2468 51.4251 29.2212C51.4283 29.202 51.4251 29.1828 51.4186 29.1636L49.0168 27.1572L50.7198 26.7316C51.2853 26.5876 51.3731 26.3284 51.3666 25.762L51.3633 23.0068C51.2918 22.6068 50.9961 22.3764 50.5736 22.3764C50.5508 22.3764 50.5248 22.3764 50.5118 22.3796H44.5221C44.4766 22.3796 44.4278 22.434 44.4278 22.4884V33.058C44.4246 33.0836 44.4441 33.1124 44.4701 33.1284ZM46.1763 24.082H49.4263C49.5693 24.082 49.6896 24.1972 49.6896 24.3412V25.154C49.6896 25.3396 49.6538 25.4388 49.4101 25.4964L46.1763 26.194V24.082Z" fill="black"/>
</g>
<defs>
<clipPath id="clip0_58_131">
<rect width="56" height="48" fill="white" transform="translate(0.5 0.133301)"/>
</clipPath>
</defs>
</svg>
