<svg width="239" height="77" viewBox="0 0 239 77" fill="none" xmlns="http://www.w3.org/2000/svg">
<g clip-path="url(#clip0_58_51)">
<path d="M11.7318 37.7317L8.84384 51.2162L5.93413 37.7317H3.20898L7.67127 55.6025H10.0056L14.4678 37.7317M19.0278 48.9579H22.4044L20.6456 42.0202L19.0278 48.9579ZM26.7256 55.5917H23.957L23.0558 52.0088H18.181L17.2581 55.5808H14.4896L19.0821 37.7099H22.209L26.7256 55.5917ZM39.9496 49.5008C39.9278 51.3139 39.1678 53.3768 38.1798 54.4299C37.3981 55.2659 35.9216 56.0911 34.293 56.1671C31.3616 56.2865 29.3204 53.7459 28.6147 49.9676C28.4736 49.1316 28.365 48.0025 28.365 46.8299C28.365 45.6357 28.4518 44.4088 28.669 43.3991C29.4073 40.0659 30.9816 37.4494 34.4016 37.4494C35.3461 37.4494 36.6598 37.6014 37.941 38.8499C39.841 40.5871 39.9278 42.8888 39.9496 43.8008H37.3656C37.2896 42.8019 36.6816 40.2722 34.0433 40.5437C32.8164 40.6631 31.861 41.8682 31.4267 43.3882C31.2421 44.0288 31.0684 45.2014 31.0141 46.4716C30.9816 47.7419 31.0684 49.1208 31.4267 50.2174C31.861 51.5202 32.4581 52.3019 33.1204 52.7145C33.4678 52.9099 33.8044 53.0077 34.1844 53.0077C34.5427 53.0294 34.9444 52.9534 35.3244 52.8122C37.2027 52.1065 37.257 50.2934 37.3656 49.5008H39.9496ZM42.349 37.7317H45.0633V44.4522H50.2856V37.7317H52.9998V55.6025H50.2856V47.5139H45.0633V55.6025H42.349M65.6376 37.7317V40.7934H58.8084V44.8648H65.1164V47.9265H58.8084V52.5299H65.9524V55.5917H56.0941V37.7208M71.381 45.4728H75.0833C75.713 45.4728 76.853 44.5717 76.6901 42.8019C76.6901 41.5208 76.2558 40.7934 75.0507 40.7934H71.381V45.4728ZM68.6667 37.7317H75.9844C77.309 37.8077 78.6444 38.6437 79.0244 40.5762C79.209 41.3579 79.4804 42.6391 79.1547 44.1808C78.829 45.7225 78.2536 46.2871 77.3633 47.0037C77.8193 47.4162 78.6878 47.8614 78.829 49.4791C78.905 50.2174 78.9376 52.5734 78.9593 53.4745C78.9593 54.4734 79.1764 54.7014 79.4696 54.9402V55.6025H76.5598C76.3427 55.0597 76.2341 54.5277 76.2016 53.9414C76.169 53.0619 76.169 51.6397 76.2016 50.3368C76.169 49.1317 75.5176 48.5454 74.573 48.5454H71.3918V55.6025H68.6776L68.6667 37.7317ZM90.2616 51.7482C91.1301 50.6734 91.5644 48.7299 91.5861 46.7974C91.5644 44.8648 91.1301 42.9322 90.2616 41.8465C89.5776 40.9888 88.709 40.6522 87.8404 40.6522C86.9718 40.6522 86.1033 40.9888 85.4193 41.8465C84.5507 42.9214 84.1164 44.8648 84.0947 46.7974C84.1164 48.7299 84.5507 50.6734 85.4193 51.7482C86.1033 52.6059 86.9718 52.9425 87.8404 52.9425C88.709 52.9425 89.5776 52.6059 90.2616 51.7482ZM92.2375 53.9305C91.141 55.4722 89.5341 56.1562 87.8404 56.1562C86.1575 56.1562 84.5507 55.4722 83.4541 53.9305C82.2273 52.1934 81.4998 49.4899 81.4998 46.7974C81.4998 44.1048 82.2273 41.4014 83.4541 39.6642C84.5507 38.1225 86.1684 37.4385 87.8404 37.4385C89.5233 37.4385 91.1301 38.1225 92.2375 39.6642C93.4644 41.4014 94.1918 44.1048 94.1918 46.7974C94.1918 49.4899 93.4644 52.1934 92.2375 53.9305ZM99.2404 37.7317L104.571 50.0111V37.7317H107.286V55.6025H104.615L99.2838 43.1602V55.6025H96.5695V37.7317M127.86 49.5008C127.849 51.3139 127.078 53.3768 126.09 54.4299C125.308 55.2659 123.832 56.0911 122.203 56.1671C119.272 56.2865 117.231 53.7459 116.525 49.9676C116.384 49.1316 116.264 48.0025 116.264 46.8299C116.264 45.6357 116.351 44.4088 116.579 43.3991C117.318 40.0659 118.892 37.4494 122.312 37.4494C123.256 37.4494 124.57 37.6014 125.851 38.8499C127.751 40.5871 127.838 42.8888 127.86 43.8008H125.276C125.2 42.8019 124.592 40.2722 121.943 40.5437C120.716 40.6631 119.76 41.8682 119.326 43.3882C119.142 44.0288 118.968 45.2014 118.914 46.4716C118.881 47.7419 118.968 49.1208 119.326 50.2174C119.76 51.5202 120.358 52.3019 121.02 52.7145C121.367 52.9099 121.704 53.0077 122.084 53.0077C122.442 53.0294 122.844 52.9534 123.224 52.8122C125.102 52.1065 125.156 50.2934 125.265 49.5008H127.86ZM138.522 51.7482C139.39 50.6734 139.824 48.7299 139.835 46.7974C139.824 44.8648 139.39 42.9322 138.522 41.8465C137.838 40.9888 136.969 40.6522 136.1 40.6522C135.232 40.6522 134.363 40.9888 133.679 41.8465C132.811 42.9214 132.376 44.8648 132.355 46.7974C132.376 48.7299 132.811 50.6734 133.679 51.7482C134.363 52.6059 135.232 52.9425 136.1 52.9425C136.958 52.9425 137.827 52.6059 138.522 51.7482ZM140.487 53.9305C139.39 55.4722 137.772 56.1562 136.1 56.1562C134.418 56.1562 132.811 55.4722 131.703 53.9305C130.476 52.1934 129.749 49.4899 129.749 46.7974C129.749 44.1048 130.476 41.4014 131.703 39.6642C132.811 38.1225 134.418 37.4385 136.09 37.4385C137.772 37.4385 139.379 38.1225 140.487 39.6642C141.714 41.4014 142.441 44.1048 142.441 46.7974C142.441 49.4899 141.714 52.1934 140.487 53.9305ZM147.5 37.7317L152.831 50.0111V37.7317H155.546V55.6025H152.875L147.544 43.1602V55.6025H144.83V37.7317M165.61 43.1711C165.643 41.7271 164.763 40.4025 162.896 40.3482C161.582 40.3265 160.605 40.9345 160.507 42.4111C160.431 43.6379 160.746 43.8768 161.343 44.2025C161.658 44.6477 164.144 45.1797 164.655 45.3099C165.382 45.4837 166.935 45.9179 167.771 47.0688C169.291 49.2294 168.585 53.4637 166.935 54.9076C165.816 55.8957 164.275 56.1345 162.809 56.1562C162.136 56.1779 160.54 55.8631 159.574 54.9076C158.39 53.7568 157.815 51.9871 157.728 50.3042H160.366C160.366 50.7711 160.475 51.4985 160.931 52.1391C161.528 52.9751 162.505 53.2465 163.406 53.1922C164.307 53.1705 165.154 52.8014 165.502 52.3562C166.077 51.6288 166.207 50.2282 165.556 49.3488C164.687 48.1219 162.082 48.1219 160.388 47.3402C158.955 46.6779 157.782 45.2774 157.999 42.3894C158.206 39.5448 159.736 37.4385 162.95 37.4385C163.656 37.4385 166.12 37.5145 167.402 39.7185C168.086 40.9237 168.27 42.5848 168.162 43.1711H165.61ZM180.517 37.7317V40.7934H176.663V55.6025H173.948V40.7934H169.953V37.7317M184.686 48.9579H188.063L186.315 42.0202L184.686 48.9579ZM192.395 55.5917H189.626L188.725 52.0088H183.839L182.916 55.5808H180.083L184.73 37.7099H187.856L192.395 55.5917ZM197.139 37.7317L202.47 50.0111V37.7317H205.184V55.6025H202.514L197.183 43.1602V55.6025H194.468V37.7317M217.594 37.7317V40.7934H213.751V55.6025H211.036V40.7934H207.041V37.7317M219.472 55.5917H222.187V37.7208H219.472M227.756 37.7317L233.087 50.0111V37.7317H235.802V55.6025H233.131L227.8 43.1602V55.6025H225.086V37.7317M110.152 14.2151L107.861 7.8528L119.63 12.9339C119.728 12.9665 119.826 12.9882 119.934 12.9882C120.173 12.9882 120.379 12.8905 120.542 12.7385C120.694 12.5865 120.792 12.3694 120.792 12.1305C120.792 12.0219 120.77 11.9134 120.738 11.8265L115.656 0.057373L122.019 2.34823L128.381 0.057373L123.3 11.8265C123.267 11.9242 123.246 12.0219 123.246 12.1305C123.246 12.3694 123.343 12.5865 123.495 12.7385C123.647 12.8905 123.864 12.9882 124.103 12.9882C124.212 12.9882 124.31 12.9665 124.407 12.9339L136.166 7.8528L133.886 14.2151L136.166 20.5774L124.407 15.4962C124.31 15.4637 124.212 15.4419 124.103 15.4419C123.864 15.4419 123.647 15.5397 123.495 15.6917C123.343 15.8437 123.246 16.0608 123.246 16.2997C123.246 16.4082 123.267 16.5059 123.3 16.6037L128.381 28.3728L122.019 26.0819L115.656 28.3728L120.738 16.6037C120.781 16.5059 120.792 16.3974 120.792 16.2888C120.792 16.0499 120.694 15.8437 120.542 15.6808C120.39 15.5288 120.173 15.4311 119.934 15.4311C119.826 15.4311 119.728 15.4528 119.63 15.4854L107.861 20.5665L110.152 14.2151ZM89.9576 70.9979C89.9576 68.2837 90.6198 66.0579 93.2907 66.0579C94.1918 66.0579 94.9627 66.1991 95.9615 66.5574L95.6793 67.6105C94.6044 67.2631 94.0724 67.1979 93.4644 67.1979C91.6621 67.1979 91.2278 68.9134 91.2278 70.9871C91.2278 73.2019 91.6295 74.9174 93.3558 74.9174C93.8987 74.9174 94.3547 74.7328 94.7455 74.4397V71.9099H93.3016V70.7699H95.9615V75.2214C95.1581 75.7099 94.3764 76.0682 93.2907 76.0682C90.609 76.0791 89.9467 73.7882 89.9576 70.9979ZM106.124 67.5997H102.291V70.5745H105.614V71.7254H102.291V75.0368H106.178V76.1877H101.075V66.4596H106.124M111.107 76.2202V66.4922H112.291L115.928 73.6037H115.95V66.4922H117.122V76.2202H115.928L112.291 69.2499H112.258V76.2202M123.615 64.1579H124.592L125.254 65.8734H124.614L123.615 64.1579ZM127.274 67.5888H123.441V70.5637H126.752V71.7145H123.441V75.0368H127.328V76.1768H122.225V66.4488H127.274V67.5888ZM135.275 74.4614L137.273 66.4162H138.565L135.992 76.2202H134.494L131.866 66.4162H133.223L135.264 74.4614M148.141 67.5997H144.308V70.5745H147.631V71.7254H144.308V75.0368H148.195V76.1877H143.092V66.4596H148.141" fill="#FFF5E5"/>
</g>
<defs>
<clipPath id="clip0_58_51">
<rect width="238" height="76" fill="white" transform="translate(0.5 0.133301)"/>
</clipPath>
</defs>
</svg>
