<svg width="30" height="30" viewBox="0 0 30 30" fill="none" xmlns="http://www.w3.org/2000/svg">
<g clip-path="url(#clip0_1_645)">
<path d="M25.5268 4.32316C24.1488 2.93485 22.5086 1.83438 20.7016 1.08571C18.8945 0.337048 16.9565 -0.0448314 15.0005 -0.037745C12.3856 -0.0351886 9.81718 0.65436 7.55257 1.96184C5.28797 3.26932 3.40665 5.14885 2.09699 7.41218C0.787327 9.67552 0.0953342 12.2433 0.090259 14.8581C0.0852026 17.4732 0.76727 20.0435 2.06815 22.3119L-0.0371094 30.0375L7.85763 27.9698C10.0376 29.1826 12.4871 29.829 14.9817 29.8495C18.9473 29.8497 22.7524 28.2833 25.5685 25.4916C28.3849 22.7001 29.9845 18.9089 30.0193 14.9435C30.0061 12.9647 29.6024 11.008 28.8315 9.18558C28.0606 7.36312 26.9375 5.71075 25.5268 4.32316ZM15.0005 27.2743C12.7781 27.2758 10.5964 26.6784 8.6847 25.545L8.23357 25.263L3.55312 26.5036L4.79372 21.936L4.49297 21.466C2.89381 18.8846 2.29699 15.8063 2.81556 12.8142C3.33413 9.82214 4.93208 7.12421 7.30669 5.23148C9.68131 3.33874 12.6676 2.38267 15.6999 2.54438C18.7323 2.70607 21.6001 3.97432 23.7599 6.10887C26.1208 8.4175 27.4723 11.5666 27.5193 14.8683C27.4896 18.1689 26.1574 21.3241 23.8129 23.6476C21.4685 25.9709 18.3012 27.2745 15.0005 27.2743ZM21.7862 17.9886C21.4103 17.8006 19.587 16.8984 19.2486 16.7856C18.9103 16.6728 18.6471 16.5976 18.4027 16.9736C18.0351 17.4775 17.6396 17.9606 17.2185 18.4209C17.0118 18.6841 16.7862 18.7029 16.4103 18.4209C14.2668 17.5739 12.4811 16.0138 11.3539 14.0036C10.9591 13.3457 11.7298 13.3833 12.4441 11.9736C12.4969 11.8719 12.5244 11.7591 12.5244 11.6446C12.5244 11.5301 12.4969 11.4173 12.4441 11.3157C12.4441 11.1277 11.5982 9.28556 11.2975 8.55248C10.9967 7.8194 10.696 7.93218 10.4516 7.91338H9.71853C9.52859 7.9163 9.34146 7.95974 9.16966 8.04077C8.99785 8.1218 8.84533 8.23859 8.72229 8.38331C8.30052 8.79342 7.97156 9.28917 7.75755 9.83714C7.54355 10.3851 7.44949 10.9726 7.48169 11.56C7.59955 12.9662 8.12911 14.3064 9.00425 15.4134C10.6061 17.8115 12.8014 19.7542 15.3764 21.0525C16.727 21.8408 18.2965 22.1705 19.8501 21.9923C20.3674 21.8897 20.8574 21.6794 21.2881 21.3749C21.7189 21.0705 22.0807 20.6788 22.3501 20.2254C22.5997 19.672 22.6783 19.0568 22.5757 18.4585C22.4065 18.2705 22.1621 18.1766 21.7862 17.9886Z" fill="white"/>
</g>
<defs>
<clipPath id="clip0_1_645">
<rect width="30" height="30" fill="white"/>
</clipPath>
</defs>
</svg>
